<svg xmlns="http://www.w3.org/2000/svg" width="128" height="128" fill="none" viewBox="0 0 128 128"><mask id="a" width="96" height="95" x="16" y="0" maskUnits="userSpaceOnUse" style="mask-type:luminance"><path fill="#fff" d="M64 0C37.49 0 16 20.203 16 45.125c.012 9.93 5.919 21.293 16.317 31.69l18.078 17.742h27.961l17.39-17.841c9.508-9.509 16.234-21.71 16.254-31.59C112 20.202 90.51 0 64 0"/></mask><g mask="url(#a)"><path fill="url(#b)" d="M64 0C37.49 0 16 20.203 16 45.125c.012 9.93 5.015 19.427 9.944 27.451l16.563 31.145h42.985l16.627-31.265c4.865-7.92 9.858-17.45 9.88-27.33 0-24.923-21.49-45.126-48-45.126"/><path fill="url(#c)" d="M62.566 0S36.3 16.342 36.3 41.743c0 19.627 23.174 61.978 23.174 61.978h7.39s1.91-42.35 1.91-61.978C68.775 16.343 62.567 0 62.567 0"/><path fill="url(#d)" d="M62.542.143C50.783.34 39.147 4.568 30.304 11.855c-8.846 7.286-14.83 17.575-16.584 28.507-1.776 11.08.813 22.73 7.157 32.214l27.22 31.145h9.217L38.212 81.185c-6.162-7.267-12.14-14.912-15.183-23.753-3.041-8.842-3.103-18.59.005-27.41 2.843-8.02 8.072-15.106 15.067-20.418 7.017-5.286 15.5-8.57 24.441-9.463z"/><path fill="url(#e)" d="M62.791.17c11.046-2.084 22.882-.208 32.591 5.165S112.58 19.53 116 29.621a41.24 41.24 0 0 1 1.085 22.637c-1.782 7.499-5.634 14.424-11.167 20.08l-16.056 31.144H70.686L89.79 71.633c4.11-6.852 7.962-14.017 9.209-21.796s-.052-15.856-3.402-23.065C89.618 13.908 77.206 3.843 62.793.171z"/></g><path fill="#e5a50a" d="M53.494 113.899v8.904a4.45 4.45 0 0 0 2.754 4.128 4.5 4.5 0 0 0 1.71.337h12.084c2.474 0 3.945-2.046 4.464-4.465v-8.904z"/><path fill="#e5a50a" d="M53.494 111.989v8.905a4.46 4.46 0 0 0 1.304 3.159c.415.415.908.744 1.45.967a4.4 4.4 0 0 0 1.71.337h12.084c2.474 0 3.945-2.045 4.464-4.463v-8.904z"/><path fill="#f3af0b" d="M66.866 111.989v13.368h3.176c2.474 0 3.945-2.045 4.464-4.463v-8.904z"/><defs><radialGradient id="b" cx="0" cy="0" r="1" gradientTransform="matrix(.22848 73.2059 -68.8401 .19043 63.505 34.302)" gradientUnits="userSpaceOnUse"><stop stop-color="#fff"/><stop offset=".519" stop-color="#fff"/><stop offset=".734" stop-color="#cfcfcf"/><stop offset="1" stop-color="#dcdcdc"/></radialGradient><radialGradient id="c" cx="0" cy="0" r="1" gradientTransform="matrix(77.4763 0 0 77.0489 60.79 28.526)" gradientUnits="userSpaceOnUse"><stop stop-color="#ed686f"/><stop offset=".865" stop-color="#a51d2d"/><stop offset="1" stop-color="#e01b24"/></radialGradient><radialGradient id="d" cx="0" cy="0" r="1" gradientTransform="matrix(18.1818 84.0491 -53.6353 10.2548 39.009 18.154)" gradientUnits="userSpaceOnUse"><stop stop-color="#ed686f"/><stop offset=".911" stop-color="#a51d2d"/><stop offset="1" stop-color="#e01b24"/></radialGradient><radialGradient id="e" cx="0" cy="0" r="1" gradientTransform="matrix(-18.1818 84.0491 53.6353 10.2548 87.786 17.916)" gradientUnits="userSpaceOnUse"><stop stop-color="#ed686f"/><stop offset=".911" stop-color="#a51d2d"/><stop offset="1" stop-color="#e01b24"/></radialGradient></defs></svg>