<svg xmlns="http://www.w3.org/2000/svg" width="128" height="128" fill="none" viewBox="0 0 128 128"><path fill="#ed333b" d="M29.143 8.13v18.811l7.929 1.166V6.964z"/><path fill="#f66151" d="M50.286 3 37.242 5.007a3.32 3.32 0 0 0-2.813 3.279v18.5a3.32 3.32 0 0 0 2.813 3.279l13.044 2.006h.66V3z"/><path fill="#3584e4" d="M50.286 3v29.732H119v-19.16A10.573 10.573 0 0 0 108.429 3z"/><path fill="#9a9996" d="m9.412 13.464 7.177-1.572v11.287l-7.177-1.572c-.395-.086-.753-.354-1.012-.755-.258-.4-.4-.91-.4-1.435v-3.763c0-.525.142-1.034.4-1.435.259-.401.617-.669 1.012-.755"/><path fill="#f66151" d="M29.174 6.249 18.54 7.884a3.08 3.08 0 0 0-2.612 3.045v13.214a3.08 3.08 0 0 0 2.612 3.045l10.633 1.635a2.267 2.267 0 0 0 2.612-2.24V8.49a2.266 2.266 0 0 0-2.612-2.241M59.1 44.416l.113.224a7.35 7.35 0 0 1 0 6.577l-.112.225a1.225 1.225 0 0 0 1.096 1.773h11.232V42.643H60.196a1.225 1.225 0 0 0-1.095 1.773"/><path fill="#1c71d8" d="M50.286 32.072c0 5.838 4.733 10.571 10.571 10.571h3.964c.73 0 1.322.592 1.322 1.321v7.929c0 .73-.592 1.321-1.322 1.321a.4.4 0 0 0-.222.733l5.783 3.855 3.69 35.055V95.5h13.214v-2.643l5.285-50.214V32.072z"/><path fill="#1a5fb4" d="M92.571 32.072A10.57 10.57 0 0 0 82 42.643l5.286 50.214V95.5h10.571v-2.643l-4.87-46.272a3.57 3.57 0 0 1 3.549-3.942h11.893c5.838 0 10.571-4.733 10.571-10.571z"/><path fill="#3584e4" d="M66.143 92.857c-3.349 0-6.53 1.463-8.71 4.005l-8.992 10.483A14.28 14.28 0 0 0 45 116.643v2.643a5.285 5.285 0 0 0 5.286 5.285H100.5a5.286 5.286 0 0 0 5.286-5.285V98.143a5.287 5.287 0 0 0-5.286-5.286z"/><path fill="#1c71d8" d="m70.382 57.802-.572-.382-6.31-4.206h7.929V58.5z"/><path fill="#1a5fb4" d="M46.044 111.357A14.3 14.3 0 0 0 45 116.643v2.643a5.285 5.285 0 0 0 5.286 5.285H100.5a5.286 5.286 0 0 0 5.286-5.285v-7.929zm26.915-29.071L70.382 57.8a14.14 14.14 0 0 1 6.38 10.391l.93 8.837a4.76 4.76 0 0 1-4.733 5.257m-8.138-46.249h7.929c.732 0 1.321.59 1.321 1.321 0 .732-.589 1.322-1.321 1.322h-7.929c-.732 0-1.321-.59-1.321-1.322s.59-1.321 1.321-1.321"/><path fill="#241f31" fill-opacity=".344" d="M38.393 8.947h7.929c.732 0 1.321.589 1.321 1.321s-.59 1.321-1.322 1.321h-7.928c-.732 0-1.322-.589-1.322-1.321s.59-1.321 1.322-1.321m0 7.267h7.929c.732 0 1.321.59 1.321 1.322s-.59 1.321-1.322 1.321h-7.928a1.32 1.32 0 0 1-1.322-1.321c0-.732.59-1.322 1.322-1.322m0 7.268h7.929c.732 0 1.321.59 1.321 1.322s-.59 1.321-1.322 1.321h-7.928a1.32 1.32 0 0 1-1.322-1.321c0-.732.59-1.322 1.322-1.322m-18.5-3.303h7.928c.732 0 1.322.59 1.322 1.321a1.32 1.32 0 0 1-1.322 1.322h-7.928c-.732 0-1.322-.59-1.322-1.322s.59-1.321 1.322-1.321m0-7.929h7.928c.732 0 1.322.59 1.322 1.322s-.59 1.321-1.322 1.321h-7.928a1.32 1.32 0 0 1-1.322-1.321c0-.732.59-1.322 1.322-1.322"/><path fill="#1c71d8" d="M113.714 14.232a5.943 5.943 0 0 1-5.946 5.947 5.947 5.947 0 1 1 5.946-5.947"/></svg>