<svg xmlns="http://www.w3.org/2000/svg" width="128" height="128" fill="none" viewBox="0 0 128 128"><path fill="url(#a)" d="M63.548 126.608c33.5 0 60.656-27.157 60.656-60.657S97.047 5.295 63.548 5.295c-33.5 0-60.657 27.157-60.657 60.656 0 33.5 27.157 60.657 60.657 60.657"/><path fill="url(#b)" d="M63.548 122.895c33.5 0 60.656-27.157 60.656-60.657S97.047 1.58 63.548 1.58c-33.5 0-60.657 27.157-60.657 60.657s27.157 60.657 60.657 60.657"/><path fill="url(#c)" d="M63.548 123.795c33.5 0 60.656-27.157 60.656-60.657S97.047 2.48 63.548 2.48c-33.5 0-60.657 27.157-60.657 60.657s27.157 60.657 60.657 60.657"/><path stroke="#8ff0a4" stroke-linecap="round" stroke-width="16.234" d="m42.303 65.85 16.23 16.23 33.2-33.2"/><defs><linearGradient id="a" x1="16.29" x2="128.153" y1="107.732" y2="107.732" gradientUnits="userSpaceOnUse"><stop stop-color="#26a269"/><stop offset=".286" stop-color="#1eef8f"/><stop offset="1" stop-color="#165f3d"/></linearGradient><linearGradient id="b" x1="76.702" x2="76.702" y1="7.816" y2="71.674" gradientUnits="userSpaceOnUse"><stop stop-color="#f9ef69"/><stop offset="1" stop-color="#f5c211"/></linearGradient><linearGradient id="c" x1="58.533" x2="110.607" y1="82.081" y2="2.3" gradientUnits="userSpaceOnUse"><stop stop-color="#26a269"/><stop offset="1" stop-color="#f9f06b"/></linearGradient></defs></svg>