<svg xmlns="http://www.w3.org/2000/svg" width="128" height="128" fill="none" viewBox="0 0 128 128"><path fill="#f6f5f4" d="M100 12H28c-8.837 0-16 7.163-16 16v72c0 8.837 7.163 16 16 16h72c8.837 0 16-7.163 16-16V28c0-8.837-7.163-16-16-16"/><path fill="#3284ff" d="M99.27 63c0-2.33-.215-4.604-.61-6.81H64.73v13.62h20.534c-1.332 4.716-4.134 8.748-7.88 11.532-.211 6.552 4.487 8.196 10.594 8.43C94.962 83.185 99.27 73.633 99.27 63"/><path fill="#ff3424" d="M65.173 41.595c5.162 0 9.812 1.869 13.414 4.98l9.806-9.945C82.27 30.657 74.003 27 64.73 27c-13.821 0-26.144 8.118-32.143 19.933.8 8.843 6.698 8.508 12.038 9.178 3.078-8.461 11.257-14.516 20.548-14.516"/><path fill="#fb0" d="M32.813 79.502c10.686.932 12.892-3.125 11.607-9.235a21.54 21.54 0 0 1 .205-14.156l-12.038-9.177A35.4 35.4 0 0 0 28.73 63c0 5.95 1.488 11.557 4.083 16.502"/><path fill="#26b14c" d="m44.42 70.267-11.607 9.234c6.077 11.58 18.266 19.5 31.917 19.5 9.064 0 17.17-3.493 23.248-9.228l-10.595-8.431a20.33 20.33 0 0 1-12.21 4.036c-9.508 0-17.849-6.34-20.753-15.111"/></svg>