<svg xmlns="http://www.w3.org/2000/svg" xmlns:xlink="http://www.w3.org/1999/xlink" width="128" height="128" viewBox="0 0 128 128"><defs><linearGradient id="c"><stop offset="0" style="stop-color:#865e3c;stop-opacity:1"/><stop offset="1" style="stop-color:#865e3c;stop-opacity:.38039634"/></linearGradient><linearGradient xlink:href="#a" id="d" x1="2" x2="112" y1="-300" y2="-300" gradientTransform="matrix(1.01818 0 0 1 5.964 172)" gradientUnits="userSpaceOnUse"/><linearGradient id="a" x1="0" x2="112" y1="-212" y2="-212" gradientUnits="userSpaceOnUse"><stop offset="0" stop-color="#77767b" style="stop-color:#865e3c;stop-opacity:1"/><stop offset=".036" stop-color="#c0bfbc" style="stop-color:#b5835a;stop-opacity:1"/><stop offset=".071" stop-color="#9a9996" style="stop-color:#865e3c;stop-opacity:1"/><stop offset=".929" stop-color="#9a9996" style="stop-color:#865e3c;stop-opacity:1"/><stop offset=".964" stop-color="#c0bfbc" style="stop-color:#b5835a;stop-opacity:1"/><stop offset="1" stop-color="#77767b" style="stop-color:#865e3c;stop-opacity:1"/></linearGradient><linearGradient xlink:href="#b" id="e" x1="2" x2="127.714" y1="-296.216" y2="-296.216" gradientTransform="matrix(.5091 0 0 -.48684 30.982 -20.21)" gradientUnits="userSpaceOnUse"/><linearGradient id="b" x1="0" x2="112" y1="-212" y2="-212" gradientUnits="userSpaceOnUse"><stop offset="0" stop-color="#77767b" style="stop-color:#865e3c;stop-opacity:1"/><stop offset=".031" stop-color="#c0bfbc" style="stop-color:#b5835a;stop-opacity:1"/><stop offset=".125" stop-color="#9a9996" style="stop-color:#865e3c;stop-opacity:1"/><stop offset=".857" stop-color="#9a9996" style="stop-color:#865e3c;stop-opacity:1"/><stop offset=".929" stop-color="#c0bfbc" style="stop-color:#b5835a;stop-opacity:1"/><stop offset="1" stop-color="#77767b" style="stop-color:#865e3c;stop-opacity:1"/></linearGradient><linearGradient xlink:href="#c" id="f" x1="60" x2="60" y1="110" y2="104" gradientTransform="translate(0 4)" gradientUnits="userSpaceOnUse"/><clipPath id="g" clipPathUnits="userSpaceOnUse"><path fill="#deddda" d="M16 26h96v74H16z" style="display:inline;fill:#26a169;fill-opacity:1;stroke-width:.999997;enable-background:new"/></clipPath><filter id="i" width="1.495" height="1.762" x="-.247" y="-.381" style="color-interpolation-filters:sRGB"><feGaussianBlur stdDeviation="9.148"/></filter></defs><rect width="112" height="76" x="8" y="-116" fill="url(#linearGradient1674)" rx="8" ry="8" style="display:inline;fill:url(#d);stroke-width:1;enable-background:new" transform="scale(1 -1)"/><path d="M32 104v11c0 4.432 4 5 4 5h56c3.725 0 4-4 4-4v-12z" style="display:inline;fill:url(#e);stroke-width:.999995;enable-background:new"/><rect width="64" height="12" x="32" y="-116" fill="#deddda" rx="5" ry="5" style="display:inline;fill:#b5835a;stroke-width:1;enable-background:new" transform="scale(1 -1)"/><rect width="112" height="92" x="-120" y="20" fill="#deddda" rx="8" ry="8" style="display:inline;fill:#b5835a;stroke-width:1;enable-background:new" transform="scale(-1 1)"/><path fill="#deddda" d="M16 30h96v74H16z" style="display:inline;fill:#297e5d;fill-opacity:1;stroke-width:.999997;enable-background:new"/><path d="M40.56 69.547q1.28-2.56 3.04-4.8 1.92-2.24 6.56-6.72 4.8-4.48 8.64-6.88 4-2.4 5.92-2.56t3.2.64q2.72 1.76 1.6 5.28 1.12-.8 2.08-1.44.96-.8 2.4-.96 1.6-.32 2.72.8 1.12.96.8 2.88-1.6 5.92-3.36 10.72-1.6 4.8-.96 7.84t4.64 3.84q4 .64 13.92-1.6 1.6-.16 2.56.64t1.12 1.92-.64 2.24q-.64 1.12-2.88 1.76-5.76 1.44-11.52 1.44-5.6.16-8.64-1.6-2.88-1.6-4.16-4.32-1.92-4.32.48-13.28-2.4 2.4-5.76 6.08t-4.8 5.12q-1.44 1.28-2.72 2.4-1.12.96-4 1.76-2.72.8-5.44.64-2.56-.16-4.48-1.76t-1.76-4.48q.16-3.04 1.44-5.6m21.92-9.76q-1.76-.16-2.72-1.44-4 3.2-8.32 7.36-4.32 4-5.76 8.96 6.4 1.76 14.72-9.76 2.24-3.2 4.64-5.76-.96.32-2.56.64" aria-label="a" style="font-weight:700;font-size:160px;line-height:1.25;font-family:Karumbi;-inkscape-font-specification:Karumbi;opacity:.8;fill:#fff"/><path d="m87.757 71.757 28.285-28.284 2.12-.707 2.122 2.121L120 48 92 76l-5.657-1v-1.828z" style="display:inline;opacity:.3;fill:#000;fill-opacity:1;stroke:none;stroke-width:1px;stroke-linecap:butt;stroke-linejoin:miter;stroke-opacity:1;enable-background:new"/><path d="m86.757 68.757 28.285-28.284 3.12.293 2.122 2.121L120 46 92 74l-5-1 .379-1.121Z" style="display:inline;fill:#fff;fill-opacity:1;stroke:none;stroke-width:1px;stroke-linecap:butt;stroke-linejoin:miter;stroke-opacity:1;enable-background:new"/><path d="m92 71 25-26-1.958-4.527 3.12.293 2.122 2.121L120 46 92 74l-5-1-.243-4.243L88 72Z" style="display:inline;fill:#deddda;fill-opacity:1;stroke:none;stroke-width:1px;stroke-linecap:butt;stroke-linejoin:miter;stroke-opacity:1;enable-background:new"/><path d="M38 110h52" style="display:inline;fill:none;stroke:url(#f);stroke-width:4;stroke-linecap:round;stroke-linejoin:miter;enable-background:new"/><g style="display:inline;enable-background:new"><path d="m145.655 265.771 12.02-12.02 3.122.293 1.414 1.414-.284 3.112-11.736 11.737h-5l.378-2.121z" style="display:inline;fill:#fff;fill-opacity:1;stroke:none;stroke-width:1px;stroke-linecap:butt;stroke-linejoin:miter;stroke-opacity:1;enable-background:new" transform="rotate(45 300.29 92.183)"/><path d="m150.19 267.307 8.737-9.737-1.251-3.82 3.121.294 1.414 1.414-.284 3.112-11.736 11.737h-5l.464-4.536.536 3.536z" style="display:inline;fill:#deddda;fill-opacity:1;stroke:none;stroke-width:1px;stroke-linecap:butt;stroke-linejoin:miter;stroke-opacity:1;enable-background:new" transform="rotate(45 300.29 92.183)"/></g><path d="M22.627 37.41v6.188h32.352V37.41zM62.225 40v2.008h14.85V40Zm21.39 0v1.477h7.602V40Zm-43.664 7.133v4.066h15.203v-4.066zm37.123 1.414v3.006h7.072v-3.006zm-57.097 4.951v2.475h10.43v-2.475zm34.293 1.768v4.31h39.668v-4.31zm-26.692 6.187v5.303h29.344v-5.303zm49.674 9.723V73h9.092v-1.824zm-48.438 5.832V78.6h10.43v-1.592ZM56.04 83v4.615H82V83Zm30.05 0v4.262h22.628V83Zm-65.052 4.086v.883h14.14v-.883zm13.787 6.01v1.943h36.594v-1.943z" clip-path="url(#g)" style="fill:#fff;stroke-linecap:round;stroke-linejoin:round;filter:url(#i)" transform="translate(0 4)"/><path fill="#deddda" d="M-112 28h96v2h-96z" style="display:inline;fill:#865e3c;fill-opacity:1;stroke-width:.999998;enable-background:new" transform="scale(-1 1)"/></svg>