<svg xmlns="http://www.w3.org/2000/svg" width="128" height="128" fill="none" viewBox="0 0 128 128"><path d="M98.705 115.843 64 91l-34.48 24.931 13.265-40.368L8.056 47.16l44.491.142 11.429-37.88 10.996 37.456 45.028.14-34.46 27.86z" style="fill:#e5a50a;stroke:#e5a50a;stroke-width:2;stroke-dasharray:none;stroke-opacity:1"/><path d="M98.705 111.843 64 87l-34.48 24.931 13.265-40.368L8.056 46.16l42.491.142 13.429-40.88 12.996 40.456 43.028.14-34.46 24.86z" style="fill:#f6d32d;stroke-width:10.4425"/><path d="M29.52 111.931 63.976 5.421 64 87Z" style="opacity:.2;fill:#f9f06b;stroke:none;stroke-width:1px;stroke-linecap:butt;stroke-linejoin:miter;stroke-opacity:1"/><path d="M99 112 64 63 8.056 46.16Z" style="opacity:.3;fill:#e5a50a;stroke:none;stroke-width:1px;stroke-linecap:butt;stroke-linejoin:miter;stroke-opacity:1"/><path d="M98.555 111.377 64.025 6.745 64 87Z" style="opacity:.4;fill:#f5c211;stroke:none;stroke-width:1px;stroke-linecap:butt;stroke-linejoin:miter;stroke-opacity:1"/><path d="m64.012 46.158-55.955.002L64 63l.008-.002Z" style="opacity:.4;fill:#f8e45c;stroke:none;stroke-width:1px;stroke-linecap:butt;stroke-linejoin:miter;stroke-opacity:1"/><path d="m64.008 62.994-.016.004-35 49L64 86.654Z" style="opacity:.2;fill:#f9f06b;stroke:none;stroke-width:1px;stroke-linecap:butt;stroke-linejoin:miter;stroke-opacity:1"/><path d="m63.982 46.158 55.956.002L63.994 63l-.008-.002zm-13.02 0-3.876 11.75-39.03-11.75z" style="opacity:.4;fill:#f9f06b;stroke:none;stroke-width:1px;stroke-linecap:butt;stroke-linejoin:miter;stroke-opacity:1"/><path d="m64.023 6.746-.015 56.264 34.547 48.367ZM64 86.662V87l18.309 12.916z" style="opacity:.4;fill:#f6d32d;stroke:none;stroke-width:1px;stroke-linecap:butt;stroke-linejoin:miter;stroke-opacity:1"/></svg>