<svg xmlns="http://www.w3.org/2000/svg" width="128" height="128" fill="none" viewBox="0 0 128 128"><g clip-path="url(#a)"><path fill="#fff" d="M100 12H28c-8.837 0-16 7.163-16 16v72c0 8.837 7.163 16 16 16h72c8.837 0 16-7.163 16-16V28c0-8.837-7.163-16-16-16"/><path fill="#000" d="M89.236 24C72.59 24 69.468 47.704 78.832 47.704 88.195 47.704 105.883 24 89.236 24m-27.64 20.767c4.986.304 10.456-19.024 1.085-17.808-9.367 1.215-6.073 17.504-1.085 17.808m-22.85 12.01c3.546-1.56.456-16.825-5.574-12.662-6.027 4.164 2.028 14.222 5.574 12.662m9.991-7.99c4.221-.86 4.453-18.172-3.075-15.067-7.53 3.107-1.143 15.93 3.075 15.067M70.78 87.53c.75 5.719-4.196 8.543-9.04 4.856-15.416-11.736 25.53-17.59 22.83-33.625-2.24-13.309-43.084-9.211-47.735 11.613C33.687 84.46 49.794 104 66.6 104c8.268 0 17.805-7.464 19.59-16.92 1.362-7.21-16.036-4.321-15.41.45"/></g><defs><clipPath id="a"><path fill="#fff" d="M0 0h128v128H0z"/></clipPath></defs></svg>