<svg xmlns="http://www.w3.org/2000/svg" width="128" height="128" fill="none" viewBox="0 0 128 128"><g style="stroke-width:.904573"><path fill="#000" d="M109.78 10.541c-4.57-3.833-11.203-4.901-18.697-3.01S75.729 14.15 68.928 20.854l.025.02a25 25 0 0 0-2.773 2.821L41.736 52.826a24.894 24.894 0 0 0 3.074 35.148h.002A24.894 24.894 0 0 0 79.959 84.9l24.445-29.132a25 25 0 0 0 2.297-3.22l.019.016c5.421-7.862 8.71-16.424 9.272-24.133s-1.643-14.056-6.213-17.89" opacity=".155" style="stroke-width:.904573" transform="translate(-3.632 -6.658)scale(1.1055)"/><path fill="url(#a)" d="M78.87 100.249c0 10.73-12.614 25.726-12.614 25.726s-12.613-14.972-12.613-25.726c0-4.596 5.647-8.321 12.613-8.321s12.613 3.725 12.613 8.321" mask="url(#b)" style="fill:url(#a);stroke-width:.904573" transform="rotate(40 89.326 63.252)scale(1.1055)"/><path fill="url(#c)" d="M66.256 112.625c13.326 0 24.128-7.127 24.128-15.918S79.582 80.789 66.256 80.789c-13.325 0-24.128 7.127-24.128 15.918s10.803 15.918 24.128 15.918" mask="url(#d)" style="fill:url(#c);stroke-width:.904573" transform="rotate(40 89.326 63.252)scale(1.1055)"/><path fill="url(#e)" d="M66.256 106.183c7.932 0 14.362-4.242 14.362-9.476 0-5.233-6.43-9.475-14.362-9.475s-14.363 4.242-14.363 9.475c0 5.234 6.43 9.476 14.363 9.476" mask="url(#f)" style="fill:url(#e);stroke-width:.904573" transform="rotate(40 89.326 63.252)scale(1.1055)"/><path fill="#fff" d="M66.256 100.049c2.798 0 5.065-1.496 5.065-3.342s-2.268-3.342-5.065-3.342-5.065 1.496-5.065 3.342 2.267 3.342 5.065 3.342" mask="url(#g)" style="stroke-width:.904573" transform="rotate(40 89.326 63.252)scale(1.1055)"/><path fill="#f6f5f4" d="M100.784 20.164c-10.556-8.857-26.292-7.48-35.149 3.074l-24.443 29.13c-8.857 10.556-7.48 26.292 3.074 35.149s26.292 7.48 35.148-3.075l24.444-29.13c8.857-10.555 7.48-26.292-3.074-35.148" style="stroke-width:.904573" transform="translate(-3.632 -6.658)scale(1.1055)"/><path fill="#fff" d="M64 64c5.61 4.708 13.976 3.976 18.684-1.635s3.977-13.976-1.634-18.684-13.976-3.976-18.685 1.635S58.39 59.292 64 64" style="stroke-width:.904573" transform="translate(-3.632 -6.658)scale(1.1055)"/><path fill="#5e5c64" d="M66.408 61.13A9.516 9.516 0 1 0 78.64 46.551a9.516 9.516 0 0 0-12.233 14.58" style="stroke-width:.904573" transform="translate(-3.632 -6.658)scale(1.1055)"/><path fill="#c0bfbc" fill-opacity=".17" d="M100.784 20.164a25.2 25.2 0 0 0-4.92-3.228 24.89 24.89 0 0 1-.957 30.865L70.463 76.93a24.886 24.886 0 0 1-30.23 6.301 25.2 25.2 0 0 0 4.034 4.285 24.894 24.894 0 0 0 35.148-3.075l24.443-29.13a24.894 24.894 0 0 0-3.074-35.148" style="stroke-width:.904573" transform="translate(-3.632 -6.658)scale(1.1055)"/><path fill="#ed333b" d="M109.634 9.984c-4.614-3.871-11.312-4.95-18.88-3.04s-15.503 6.682-22.37 13.452l38.16 32.021c5.474-7.938 8.796-16.583 9.363-24.368.567-7.784-1.659-14.193-6.273-18.065" style="stroke-width:.904573" transform="translate(-3.632 -6.658)scale(1.1055)"/><path fill="#000" fill-opacity=".094" d="m40.44 59.069-2.86 8.474a13.03 13.03 0 0 1-15.222 8.543L10.478 73.4a5.44 5.44 0 0 1-3.962-3.575 5.44 5.44 0 0 1 .99-5.244l2.923-3.483a13.23 13.23 0 0 1 9.657-4.719l17.864-.647a2.53 2.53 0 0 1 2.49 3.338" style="stroke-width:.904573" transform="translate(-3.632 -6.658)scale(1.1055)"/><path fill="#b0afac" d="m41.39 57.936-2.86 8.475a13.03 13.03 0 0 1-15.222 8.543l-11.88-2.688a5.44 5.44 0 0 1-3.962-3.575 5.44 5.44 0 0 1 .99-5.243l2.923-3.483a13.24 13.24 0 0 1 9.658-4.72l17.863-.647a2.53 2.53 0 0 1 2.49 3.338" style="fill:#edeceb;fill-opacity:1;stroke-width:.904573" transform="translate(-3.632 -6.658)scale(1.1055)"/><path fill="#000" fill-opacity=".094" d="m73.094 86.47-7.85 4.288a13.03 13.03 0 0 0-5.77 16.473l4.71 11.234a5.44 5.44 0 0 0 1.676 2.19 5.44 5.44 0 0 0 5.275.8 5.44 5.44 0 0 0 2.25-1.595l2.923-3.483a13.23 13.23 0 0 0 2.97-10.33l-2.464-17.705a2.53 2.53 0 0 0-3.72-1.872" style="stroke-width:.904573" transform="translate(-3.632 -6.658)scale(1.1055)"/><path fill="#deddda" d="M57.148 75.057a1.858 1.858 0 0 0-2.847-2.389L34.195 96.63a1.858 1.858 0 0 0 2.847 2.39z" style="stroke-width:.904573" transform="translate(-3.632 -6.658)scale(1.1055)"/><path fill="#e01b24" d="M112.623 13.647c-2.382 9.78-7.727 20.697-15.225 31.095l9.37 7.863c4.777-6.93 7.916-14.426 8.968-21.422s-.038-13.133-3.113-17.536" style="stroke-width:.904573" transform="translate(-3.632 -6.658)scale(1.1055)"/><path fill="#fff" d="m74.044 85.337-7.85 4.288a13.03 13.03 0 0 0-5.77 16.474l4.71 11.234a5.44 5.44 0 0 0 1.676 2.19 5.44 5.44 0 0 0 5.275.8 5.44 5.44 0 0 0 2.25-1.595l2.923-3.483a13.23 13.23 0 0 0 2.97-10.331l-2.464-17.705a2.53 2.53 0 0 0-3.72-1.872" style="fill:#f6f5f4;fill-opacity:1;stroke-width:.904573" transform="translate(-3.632 -6.658)scale(1.1055)"/></g><defs><mask id="g" maskUnits="userSpaceOnUse"><path fill="#fff" d="M78.87 100.249c0 10.73-12.614 25.726-12.614 25.726s-12.613-14.972-12.613-25.726c0-4.596 5.647-8.322 12.613-8.322s12.613 3.726 12.613 8.322"/></mask><mask id="f" maskUnits="userSpaceOnUse"><path fill="#fff" d="M78.87 100.249c0 10.73-12.614 25.726-12.614 25.726s-12.613-14.972-12.613-25.726c0-4.596 5.647-8.322 12.613-8.322s12.613 3.726 12.613 8.322"/></mask><mask id="d" maskUnits="userSpaceOnUse"><path fill="#fff" d="M78.87 100.249c0 10.73-12.614 25.726-12.614 25.726s-12.613-14.972-12.613-25.726c0-4.596 5.647-8.322 12.613-8.322s12.613 3.726 12.613 8.322"/></mask><mask id="b" maskUnits="userSpaceOnUse"><path fill="#fff" d="M78.87 100.249c0 10.73-12.614 25.726-12.614 25.726s-12.613-14.972-12.613-25.726c0-4.596 5.647-8.322 12.613-8.322s12.613 3.726 12.613 8.322"/></mask><radialGradient id="c" cx="0" cy="0" r="1" gradientTransform="matrix(24.1281 0 0 15.9182 66.257 96.707)" gradientUnits="userSpaceOnUse"><stop stop-color="#e5a50a"/><stop offset="1" stop-color="#e5a50a" stop-opacity="0"/></radialGradient><radialGradient id="e" cx="0" cy="0" r="1" gradientTransform="matrix(14.3625 0 0 9.4755 66.255 96.707)" gradientUnits="userSpaceOnUse"><stop stop-color="#fff"/><stop offset="1" stop-color="#fff" stop-opacity="0"/></radialGradient><linearGradient id="a" x1="66.241" x2="66.241" y1="98.035" y2="131.728" gradientUnits="userSpaceOnUse"><stop stop-color="#e01b24"/><stop offset="1" stop-color="#e01b24" stop-opacity="0"/></linearGradient></defs></svg>