<svg xmlns="http://www.w3.org/2000/svg" width="128" height="128" fill="none" viewBox="0 0 128 128"><path fill="#f6f5f4" d="M100 12H28c-8.837 0-16 7.163-16 16v72c0 8.837 7.163 16 16 16h72c8.837 0 16-7.163 16-16V28c0-8.837-7.163-16-16-16"/><path fill="#24292f" fill-rule="evenodd" d="M64.034 23C41.344 23 23 41.562 23 64.527c0 18.356 11.753 33.895 28.058 39.394 2.038.414 2.785-.893 2.785-1.993 0-.962-.067-4.262-.067-7.7-11.415 2.475-13.792-4.95-13.792-4.95-1.834-4.814-4.552-6.05-4.552-6.05-3.736-2.544.272-2.544.272-2.544 4.144.275 6.319 4.262 6.319 4.262 3.668 6.325 9.578 4.538 11.956 3.438.34-2.682 1.427-4.538 2.582-5.57-9.104-.962-18.682-4.537-18.682-20.488 0-4.538 1.629-8.25 4.21-11.137-.406-1.031-1.834-5.295.41-11.001 0 0 3.464-1.1 11.276 4.263a39.3 39.3 0 0 1 10.259-1.376c3.465 0 6.996.482 10.258 1.376 7.813-5.363 11.278-4.263 11.278-4.263 2.242 5.706.815 9.97.407 11 2.65 2.888 4.212 6.6 4.212 11.138 0 15.951-9.578 19.457-18.75 20.489 1.495 1.306 2.785 3.78 2.785 7.7 0 5.569-.067 10.038-.067 11.412 0 1.101.747 2.408 2.785 1.995C93.247 98.421 105 82.883 105 64.527 105.067 41.562 86.657 23 64.034 23" clip-rule="evenodd"/></svg>