<svg xmlns="http://www.w3.org/2000/svg" width="128" height="128" fill="none" viewBox="0 0 128 128"><path fill="#f6f5f4" d="M100 12H28c-8.837 0-16 7.163-16 16v72c0 8.837 7.163 16 16 16h72c8.837 0 16-7.163 16-16V28c0-8.837-7.163-16-16-16"/><path fill="#e24329" d="m104.405 55.61-.115-.3-11.38-29.69a2.94 2.94 0 0 0-1.169-1.41 3.03 3.03 0 0 0-3.506.187 3 3 0 0 0-1.007 1.531l-7.683 23.517H48.456l-7.684-23.517a3 3 0 0 0-1.006-1.532 3.03 3.03 0 0 0-3.506-.187 2.94 2.94 0 0 0-1.17 1.41L23.71 55.314l-.114.297c-3.372 8.797-.5 18.74 7.01 24.42l.04.03.101.076 17.335 12.978 8.575 6.49 5.218 3.945a3.52 3.52 0 0 0 4.251 0l5.218-3.945 8.573-6.49L97.354 80.06l.046-.035c7.504-5.68 10.375-15.62 7.005-24.415"/><path fill="#fc6d26" d="m104.405 55.61-.115-.3a38.4 38.4 0 0 0-15.299 6.88c-.072.054-13.53 10.232-24.99 18.896 8.508 6.434 15.915 12.028 15.915 12.028L97.355 80.06l.046-.035c7.504-5.68 10.375-15.62 7.005-24.415"/><path fill="#fca326" d="m48.082 93.114 8.575 6.49 5.217 3.945a3.52 3.52 0 0 0 4.252 0l5.218-3.945 8.573-6.49S72.509 87.52 64 81.086c-8.51 6.434-15.918 12.028-15.918 12.028"/><path fill="#fc6d26" d="M39.008 62.19a38.4 38.4 0 0 0-15.298-6.877l-.114.297c-3.372 8.797-.5 18.74 7.01 24.42l.04.03.101.076 17.335 12.978S55.49 87.52 64 81.086c-11.46-8.664-24.92-18.842-24.992-18.895"/></svg>