<svg xmlns="http://www.w3.org/2000/svg" width="128" height="128" viewBox="0 0 128 128"><linearGradient id="b" x1="48" x2="464" y1="44" y2="44" gradientTransform="matrix(.25 0 0 .24405 -.5 50.196)" gradientUnits="userSpaceOnUse"><stop offset="0" stop-color="#babdb6"/><stop offset=".042" stop-color="#f6f5f4"/><stop offset=".083" stop-color="#d5d3cf"/><stop offset=".917" stop-color="#deddda"/><stop offset=".958" stop-color="#f6f5f4"/><stop offset="1" stop-color="#babdb6"/></linearGradient><linearGradient id="c" x1="953.275" x2="944.207" y1="350.856" y2="359.924" gradientTransform="matrix(-.4716 0 0 .4716 569.325 -130.367)" gradientUnits="userSpaceOnUse"><stop offset="0" stop-color="#e9b96e"/><stop offset="1" stop-color="#dc9321"/></linearGradient><linearGradient id="d" x1="418.838" x2="433.35" y1="227" y2="212.868" gradientTransform="matrix(-.35834 0 0 .35834 230.872 1.097)" gradientUnits="userSpaceOnUse"><stop offset="0" stop-color="#9a9996"/><stop offset=".416" stop-color="#c0bfbc"/><stop offset="1" stop-color="#deddda"/></linearGradient><radialGradient id="e" cx="450.948" cy="225.395" r="40" gradientTransform="matrix(-.6586 0 0 .6586 370.112 -72.352)" gradientUnits="userSpaceOnUse"><stop offset="0" stop-color="#5b5b5b"/><stop offset=".634" stop-color="#262e39"/><stop offset="1" stop-color="#113f78"/></radialGradient><filter id="a" width="100%" height="100%" x="0%" y="0%"><feColorMatrix in="SourceGraphic" values="0 0 0 0 1 0 0 0 0 1 0 0 0 0 1 0 0 0 1 0"/></filter><mask id="h"><g filter="url(#a)"><path fill-opacity=".3" d="M0 0h128v128H0z"/></g></mask><clipPath id="f"><path d="M0 0h192v152H0z"/></clipPath><linearGradient id="i" x1="19.25" x2="54.82" y1="56" y2="91.57" gradientUnits="userSpaceOnUse"><stop offset="0" stop-color="#dc8add"/><stop offset="1" stop-color="#103c72"/></linearGradient><radialGradient id="j" cx="67.503" cy="244.505" r="11.077" gradientTransform="matrix(1.0011 0 0 .81247 -.577 -108.653)" gradientUnits="userSpaceOnUse"><stop offset="0" stop-color="#113f78" stop-opacity="0"/><stop offset=".786" stop-color="#113f78" stop-opacity=".106"/><stop offset="1" stop-color="#103c72"/></radialGradient><mask id="l"><g filter="url(#a)"><path fill-opacity=".2" d="M0 0h128v128H0z"/></g></mask><clipPath id="k"><path d="M0 0h192v152H0z"/></clipPath><path fill="#9a9996" d="M24 123v1h16v-1zm64 0v1h16v-1zm0 0"/><path fill="#77767b" fill-rule="evenodd" d="M88 124v-4L64 24v4zm-48 0v-4l24-96v4z"/><path fill="#c0bfbc" d="M64 4a6.19 6.19 0 0 0-6.04 4.867l-.003-.004L24 123h16L64 22l24 101h16L70.008 8.715 70 8.727A6.18 6.18 0 0 0 64 4m0 5a3 3 0 1 1-.002 6.002A3 3 0 0 1 64 9m0 0"/><path fill="url(#b)" d="M20 30h88a8 8 0 0 1 8 8v66a8 8 0 0 1-8 8H20a8 8 0 0 1-8-8V38a8 8 0 0 1 8-8m0 0"/><path fill="#f6f5f4" d="M20 20h88a8 8 0 0 1 8 8v72a8 8 0 0 1-8 8H20a8 8 0 0 1-8-8V28a8 8 0 0 1 8-8m0 0"/><path fill="url(#c)" d="M128 36 79.094 84.91a5.663 5.663 0 0 1-8.086.082 5.663 5.663 0 0 1 .082-8.086l41.133-41.133C117.12 31.57 124 32 128 36m0 0"/><path fill="url(#d)" d="M90.684 59.586c5.148.004 7.687 6.258 3.996 9.848L75.613 90.492a7.143 7.143 0 0 1-10.144.04 7.14 7.14 0 0 1 .043-10.141L86.57 61.324a5.72 5.72 0 0 1 4.114-1.738m0 0"/><path fill="url(#e)" d="M72 68c8.836 0 16 7.164 16 16s-7.164 16-16 16H56V84c0-8.836 7.164-16 16-16m0 0"/><g clip-path="url(#f)" mask="url(#h)" transform="translate(-8 -16)"><path fill="#fff" d="M72.004 95c0-1.656 1.34-2.996 2.996-2.996s2.996 1.34 2.996 2.996-1.34 2.996-2.996 2.996-2.996-1.34-2.996-2.996m0 0"/></g><path fill="url(#i)" d="M12 39.867v24c2.004-1.125 4.426-1.488 6.672-1.004s4.305 1.813 5.668 3.664c1.762 2.391 2.312 5.461 2.457 8.43.144 2.965-.067 5.957.394 8.895.63 3.996 2.54 7.793 5.41 10.648 2.868 2.855 6.688 4.754 10.704 5.27 2.61.335 5.254.203 7.886.21L56 100v-2a72 72 0 0 0-6.156-1.16c-1.34-.192-2.696-.344-3.996-.735-1.301-.386-2.563-1.023-3.461-2.039-.758-.855-1.227-1.941-1.43-3.066-.207-1.121-.152-2.281.047-3.402.406-2.246 1.39-4.34 2.133-6.5 2.398-6.989 2.168-14.797-.375-21.73-2.805-7.645-8.547-14.313-16.012-17.563A27.04 27.04 0 0 0 12 39.867m0 0"/><path fill="url(#j)" d="m46.906 96.375 4.285 3.605L70 100l-2-3c-3.145-4.715-9.133-9-12-9 0 6-5.562 9.098-9.094 8.375m0 0"/><g clip-path="url(#k)" mask="url(#l)" transform="translate(-8 -16)"><path d="m35 128-.621 2h16.055l.523-1.973zm57.988 0 .5 2h16.133l-.621-2zm0 0"/></g></svg>