<svg xmlns="http://www.w3.org/2000/svg" width="128" height="128" viewBox="0 0 128 128"><linearGradient id="a" x1="64" x2="64" y1="262.5" y2="232" gradientUnits="userSpaceOnUse"><stop offset="0" stop-color="#9a9996"/><stop offset="1" stop-color="#77767b"/></linearGradient><radialGradient id="b" cx="-243.067" cy="-74.6" r="28.267" gradientUnits="userSpaceOnUse"><stop offset="0" stop-color="#d5d3cf"/><stop offset="1" stop-color="#949390"/></radialGradient><linearGradient id="c" x1="204" x2="268" y1="-64" y2="-64" gradientUnits="userSpaceOnUse"><stop offset="0" stop-color="#d5d3cf"/><stop offset="1" stop-color="#f6f5f4"/></linearGradient><g stroke-linecap="round" stroke-linejoin="round" stroke-width="8"><path fill="#9a9996" stroke="#9a9996" d="M67 122h-6l-2-16h10zM61 10h6l2 16H59zM8 69v-6l16-2v10zm112-6v6l-16 2V61zM14.004 40.597l3-5.195 14.855 6.266-5 8.66zm99.992 50.805-3 5.195-14.855-6.265 5-8.664zM33.403 19.004l5.195-3 9.734 12.855-8.664 5zm61.195 93.992-5.195 3-9.735-12.855 8.664-5zm-56.001 3-5.195-3 6.266-14.855 8.664 5zm50.805-99.992 5.195 3-6.265 14.855-8.664-5zM17.004 96.597l-3-5.195 12.855-9.734 5 8.664zm93.992-61.195 3 5.195-12.855 9.73-5-8.66zm0 0"/><path fill="#f6f5f4" stroke="#f6f5f4" d="M67 120h-6l-2-16h10zM61 8h6l2 16H59zM8 67v-6l16-2v10zm112-6v6l-16 2V59zM14.004 38.597l3-5.195 14.855 6.266-5 8.66zm99.992 50.805-3 5.195-14.855-6.265 5-8.664zM33.403 17.004l5.195-3 9.734 12.855-8.664 5zm61.195 93.992-5.195 3-9.735-12.855 8.664-5zm-56.001 3-5.195-3 6.266-14.855 8.664 5zm50.805-99.992 5.195 3-6.265 14.855-8.664-5zM17.004 94.597l-3-5.195 12.855-9.734 5 8.664zm93.992-61.195 3 5.195-12.855 9.73-5-8.66zm0 0"/></g><path fill="none" stroke="url(#a)" stroke-width="24" d="M100 238c0 19.883-16.117 36-36 36s-36-16.117-36-36 16.117-36 36-36 36 16.117 36 36zm0 0" transform="translate(0 -172)"/><path fill="none" stroke="#f6f5f4" stroke-width="20" d="M102 64c0 20.988-17.012 38-38 38S26 84.988 26 64s17.012-38 38-38 38 17.012 38 38zm0 0"/><path fill="none" stroke="url(#b)" stroke-linecap="square" stroke-linejoin="round" stroke-width="5" d="M-209.5-64c0 14.637-11.863 26.5-26.5 26.5s-26.5-11.863-26.5-26.5 11.863-26.5 26.5-26.5 26.5 11.863 26.5 26.5zm0 0" transform="matrix(0 -1 -1 0 0 -172)"/><path fill="none" stroke="url(#c)" stroke-linecap="square" stroke-linejoin="round" stroke-width="8" d="M268-64c0 17.672-14.328 32-32 32s-32-14.328-32-32 14.328-32 32-32 32 14.328 32 32zm0 0" transform="rotate(90 86 -86)"/></svg>