<svg xmlns="http://www.w3.org/2000/svg" width="128" height="128" fill="none" viewBox="0 0 128 128"><path fill="#5e5c64" d="M122 65.45a58.5 58.5 0 1 1-117.001 0 58.5 58.5 0 0 1 117.001 0"/><path fill="url(#a)" d="M122 63.5a58.5 58.5 0 1 1-117 0 58.5 58.5 0 0 1 117 0"/><path fill="#f6f5f4" d="M111.275 63.5c0-26.385-21.39-47.775-47.775-47.775S15.725 37.115 15.725 63.5s21.39 47.775 47.775 47.775 47.775-21.39 47.775-47.775"/><path fill="#f6f5f4" stroke="#c0bfbc" stroke-linecap="round" stroke-linejoin="round" stroke-width="3.9" d="M63.5 85.925c12.385 0 22.425-10.04 22.425-22.425S75.885 41.075 63.5 41.075 41.075 51.115 41.075 63.5 51.115 85.925 63.5 85.925"/><path fill="#c0bfbc" d="m60.575 41.075 2.925-19.5 2.925 19.5zM41.111 65.302l-19.5-2.925 19.5-2.925zm44.801.475 19.5-2.925-19.5-2.925zM61.169 85.915l2.925 19.5 2.925-19.5z"/><path fill="#ed333b" d="m56.716 70.505 13.789-13.789-38.038-24.248z"/><path fill="#3584e4" d="m56.716 70.505 13.789-13.789 24.028 37.817z"/><path fill="#a51d2d" d="m56.716 70.505 6.894-6.894-31.143-31.143z"/><path fill="#1755a1" d="m56.716 70.505 6.894-6.895 30.923 30.923z"/><path fill="#f6f5f4" d="M63.5 66.913a3.412 3.412 0 1 0 0-6.825 3.412 3.412 0 0 0 0 6.825"/><defs><radialGradient id="a" cx="0" cy="0" r="1" gradientTransform="translate(64.022 62.525)scale(58.5)" gradientUnits="userSpaceOnUse"><stop stop-color="#1a5fb4"/><stop offset=".739" stop-color="#9a9996"/><stop offset=".896" stop-color="#deddda"/><stop offset="1" stop-color="#9a9996"/></radialGradient></defs></svg>