<svg xmlns="http://www.w3.org/2000/svg" xmlns:xlink="http://www.w3.org/1999/xlink" width="128" height="128" fill="none" viewBox="0 0 128 128"><defs><radialGradient xlink:href="#a" id="h" cx="48.571" cy="88.666" r="12" fx="48.571" fy="88.666" gradientTransform="matrix(1.7504 0 0 1.50086 -36.02 -44.076)" gradientUnits="userSpaceOnUse"/><radialGradient xlink:href="#a" id="i" cx="48.571" cy="88.666" r="12" fx="48.571" fy="88.666" gradientTransform="matrix(1.7504 0 0 1.50086 11.98 -43.076)" gradientUnits="userSpaceOnUse"/><radialGradient xlink:href="#b" id="j" cx="67" cy="46.269" r="22" fx="67" fy="46.269" gradientTransform="matrix(1.5447 -.04827 .04546 1.45455 -38.6 -16.067)" gradientUnits="userSpaceOnUse"/><radialGradient xlink:href="#b" id="k" cx="67" cy="46.269" r="22" fx="67" fy="46.269" gradientTransform="matrix(1.5447 -.04827 .04545 1.45455 9.402 -16.066)" gradientUnits="userSpaceOnUse"/><linearGradient id="b"><stop offset="0" style="stop-color:#fff;stop-opacity:1"/><stop offset="1" style="stop-color:#fff;stop-opacity:0"/></linearGradient><linearGradient id="a"><stop offset="0" style="stop-color:#fff;stop-opacity:1"/><stop offset="1" style="stop-color:#fff;stop-opacity:0"/></linearGradient><linearGradient xlink:href="#d" id="e" x1="32" x2="32" y1="284" y2="220" gradientTransform="translate(5.429 -147.286)scale(.82143)" gradientUnits="userSpaceOnUse"/><linearGradient id="d"><stop offset="0" style="stop-color:#a347ba;stop-opacity:1"/><stop offset="1" style="stop-color:#613583;stop-opacity:1"/></linearGradient><clipPath id="g" clipPathUnits="userSpaceOnUse"><path d="m14.914-9.832 79.675 46 4.027-6.977-79.674-46Z" style="opacity:1;vector-effect:none;fill:#e4e6e8;stroke-width:6;marker:none;marker-start:none;marker-mid:none;marker-end:none"/></clipPath><clipPath id="f" clipPathUnits="userSpaceOnUse"><path d="m-1.086 17.88 79.675 46 4.027-6.976-72.746-42C6.494 12.955.815 14.59-1.086 17.88" style="opacity:1;vector-effect:none;fill:#e4e6e8;fill-opacity:1;stroke:none;stroke-width:6;stroke-linecap:butt;stroke-linejoin:miter;stroke-miterlimit:4;stroke-dasharray:none;stroke-dashoffset:0;stroke-opacity:1;marker:none;marker-start:none;marker-mid:none;marker-end:none;paint-order:normal"/></clipPath></defs><rect width="92" height="66.058" x="12" y="22" rx="8" ry="8" style="display:inline;vector-effect:none;fill:#422863;fill-opacity:1;stroke:none;stroke-width:6.50655;stroke-linecap:square;stroke-linejoin:round;stroke-miterlimit:4;stroke-dasharray:none;stroke-dashoffset:0;stroke-opacity:1"/><rect width="92" height="67.382" x="12" y="18.618" rx="8" ry="8" style="display:inline;vector-effect:none;fill:url(#e);fill-opacity:1;stroke:none;stroke-width:6.57143;stroke-linecap:square;stroke-linejoin:round;stroke-miterlimit:4;stroke-dasharray:none;stroke-dashoffset:0;stroke-opacity:1"/><path d="M12 24.086h92V16.03H20c-3.898 0-8 4.255-8 8.056" style="opacity:1;vector-effect:none;fill:#e4e6e8;fill-opacity:1;stroke:none;stroke-width:6;stroke-linecap:butt;stroke-linejoin:miter;stroke-miterlimit:4;stroke-dasharray:none;stroke-dashoffset:0;stroke-opacity:1;marker:none;marker-start:none;marker-mid:none;marker-end:none;paint-order:normal"/><path d="M17.1-5.56H5.748v33.94H17.1zm21.65 12.5H27.399v33.94h11.354zm21.652 12.5H49.049v33.94h11.353zm21.65 12.5H70.7v33.94h11.353z" clip-path="url(#f)" style="display:inline;vector-effect:none;fill:#241f31;fill-opacity:1;stroke:none;stroke-width:6;stroke-linecap:butt;stroke-linejoin:miter;stroke-miterlimit:4;stroke-dasharray:none;stroke-dashoffset:0;stroke-opacity:1;marker:none;marker-start:none;marker-mid:none;marker-end:none;paint-order:normal" transform="rotate(-30 17.036 -3.435)"/><path d="M12 24.03h92v8.056H12Z" style="opacity:1;vector-effect:none;fill:#e4e6e8;stroke-width:6;marker:none;marker-start:none;marker-mid:none;marker-end:none"/><path d="M21.747.668v-33.941H33.1l.001 33.94zm21.651 12.5v-33.941h11.353v33.94zm21.65 12.5V-8.273h11.354v33.94zm21.651 12.5V4.227h11.353l.001 33.94z" clip-path="url(#g)" style="display:inline;vector-effect:none;fill:#000;fill-opacity:1;stroke:none;stroke-width:6;stroke-linecap:butt;stroke-linejoin:miter;stroke-miterlimit:4;stroke-dasharray:none;stroke-dashoffset:0;stroke-opacity:1;marker:none;marker-start:none;marker-mid:none;marker-end:none;paint-order:normal" transform="rotate(210 3.08 3.493)scale(-1 1)"/><path d="M12 21.283c0-2.668 2.745-5.333 5.333-5.333 0 0 10.667 10.589 10.667 10.666v5.334H12z" style="display:inline;fill:#c0bfbc;fill-opacity:1;stroke:none;stroke-width:.333333px;stroke-linecap:butt;stroke-linejoin:miter;stroke-opacity:1"/><path d="M12 32.03h92v2H12Z" style="display:inline;vector-effect:none;fill:#77767b;stroke-width:.25;stroke-linecap:round;marker:none;marker-start:none;marker-mid:none;marker-end:none"/><path d="m103.364 32.03-1.016 2H89l1.271-2zm-25.121 0-1.016 2H63.879l1.271-2zm-25 0-1.016 2H38.879l1.271-2zm-24.862 0-1.016 2H14.017l1.271-2z" style="display:inline;fill:#3d3846;fill-opacity:1;stroke:none;stroke-width:.25px;stroke-linecap:butt;stroke-linejoin:miter;stroke-opacity:1"/><path d="M40 42.03v12H26c-1.017 0-2 .89-2 2h68c0-1.065-.938-2-2-2H76v-12h-2v12H42v-12zm-16 30c0 .969 1.015 2 2 2h64c1.087 0 2-.947 2-2z" style="display:inline;vector-effect:none;fill:#f6f5f4;fill-opacity:1;stroke:none;stroke-width:.25;stroke-linecap:round;stroke-linejoin:miter;stroke-miterlimit:4;stroke-dasharray:none;stroke-dashoffset:0;stroke-opacity:1;marker:none;marker-start:none;marker-mid:none;marker-end:none;paint-order:normal;opacity:.4"/><g style="fill:#e57a0a;fill-opacity:1"><path d="M1240.466 784.333V990.4l64.8 21.6-.228-219.947A40.01 40.01 134.97 0 1 1345.05 752h115.443a39.396 39.396 45 0 1 39.396 39.396v157.178l63.789 59.426.322 4V783.66a95.66 95.66 45 0 0-95.658-95.66h-131.543a96.33 96.33 135 0 0-96.333 96.333" style="display:inline;vector-effect:none;fill:#e57a0a;fill-opacity:1;stroke:none;stroke-width:6.51673;stroke-linecap:butt;stroke-linejoin:miter;stroke-miterlimit:4;stroke-dasharray:none;stroke-dashoffset:0;stroke-opacity:1;marker:none;marker-start:none;marker-mid:none;marker-end:none;paint-order:normal" transform="translate(-169.716 -85.407)scale(.18518)"/><circle cx="54" cy="100" r="18" style="font-variation-settings:normal;display:inline;vector-effect:none;fill:#e57a0a;fill-opacity:1;fill-rule:evenodd;stroke:none;stroke-width:1.27351;stroke-linecap:round;stroke-linejoin:miter;stroke-miterlimit:4;stroke-dasharray:none;stroke-dashoffset:0;stroke-opacity:1;-inkscape-stroke:none;marker:none;marker-start:none;marker-mid:none;marker-end:none;paint-order:normal;stop-color:#000"/><circle cx="102" cy="100" r="18" style="font-variation-settings:normal;display:inline;vector-effect:none;fill:#e57a0a;fill-opacity:1;fill-rule:evenodd;stroke:none;stroke-width:1.27351;stroke-linecap:round;stroke-linejoin:miter;stroke-miterlimit:4;stroke-dasharray:none;stroke-dashoffset:0;stroke-opacity:1;-inkscape-stroke:none;marker:none;marker-start:none;marker-mid:none;marker-end:none;paint-order:normal;stop-color:#000"/></g><g style="fill:#f5c211"><path d="M1240.466 784.333V990.4l64.8 21.6-.228-219.947A40.01 40.01 134.97 0 1 1345.05 752h115.443a39.396 39.396 45 0 1 39.396 39.396v157.178l63.789 59.426.322 4V783.66a95.66 95.66 45 0 0-95.658-95.66h-131.543a96.33 96.33 135 0 0-96.333 96.333" style="display:inline;vector-effect:none;fill:#f5c211;fill-opacity:1;stroke:none;stroke-width:6.51673;stroke-linecap:butt;stroke-linejoin:miter;stroke-miterlimit:4;stroke-dasharray:none;stroke-dashoffset:0;stroke-opacity:1;marker:none;marker-start:none;marker-mid:none;marker-end:none;paint-order:normal" transform="translate(-169.716 -87.407)scale(.18518)"/><circle cx="54" cy="98" r="18" style="font-variation-settings:normal;display:inline;vector-effect:none;fill:#f5c211;fill-opacity:1;fill-rule:evenodd;stroke:none;stroke-width:1.27351;stroke-linecap:round;stroke-linejoin:miter;stroke-miterlimit:4;stroke-dasharray:none;stroke-dashoffset:0;stroke-opacity:1;-inkscape-stroke:none;marker:none;marker-start:none;marker-mid:none;marker-end:none;paint-order:normal;stop-color:#000"/><circle cx="102" cy="98" r="18" style="font-variation-settings:normal;display:inline;vector-effect:none;fill:#f5c211;fill-opacity:1;fill-rule:evenodd;stroke:none;stroke-width:1.27351;stroke-linecap:round;stroke-linejoin:miter;stroke-miterlimit:4;stroke-dasharray:none;stroke-dashoffset:0;stroke-opacity:1;-inkscape-stroke:none;marker:none;marker-start:none;marker-mid:none;marker-end:none;paint-order:normal;stop-color:#000"/></g><circle cx="52" cy="94" r="12" style="font-variation-settings:normal;display:inline;vector-effect:none;fill:url(#h);fill-rule:evenodd;stroke:none;stroke-width:.849007;stroke-linecap:round;stroke-linejoin:miter;stroke-miterlimit:4;stroke-dasharray:none;stroke-dashoffset:0;stroke-opacity:1;-inkscape-stroke:none;marker:none;marker-start:none;marker-mid:none;marker-end:none;paint-order:normal;stop-color:#000;opacity:.5"/><circle cx="100" cy="95" r="12" style="font-variation-settings:normal;display:inline;vector-effect:none;fill:url(#i);fill-rule:evenodd;stroke:none;stroke-width:.849007;stroke-linecap:round;stroke-linejoin:miter;stroke-miterlimit:4;stroke-dasharray:none;stroke-dashoffset:0;stroke-opacity:1;-inkscape-stroke:none;marker:none;marker-start:none;marker-mid:none;marker-end:none;paint-order:normal;stop-color:#000;opacity:.5"/><path d="M104 44H79s-14.823-.243-15 16v19" style="opacity:.4;fill:none;stroke:url(#j);stroke-width:4;stroke-linecap:round;stroke-linejoin:miter;stroke-dasharray:none"/><path d="M112 58v21" style="opacity:.4;fill:none;stroke:url(#k);stroke-width:4;stroke-linecap:round;stroke-linejoin:miter;stroke-dasharray:none"/></svg>