<svg xmlns="http://www.w3.org/2000/svg" width="128" height="128" fill="none" viewBox="0 0 128 128"><path fill="#fcfcfc" d="M72.95 7.343 53.961 9.16v78.183l18.786-2.829V51.18L98 88.152l19.797-6.264-25.859-35.556L118 12.796 97.8 8.15 72.748 41.686zM29.91 26.395a.96.96 0 0 0-.583.279l-7.452 7.45a.964.964 0 0 0-.141 1.183l8.725 14.37a37.3 37.3 0 0 0-3.675 8.365l-16.017 3.332a.964.964 0 0 0-.767.944v10.538a.96.96 0 0 0 .734.935l15.547 3.8a37.2 37.2 0 0 0 3.812 9.662l-8.999 13.723a.96.96 0 0 0 .126 1.211l7.45 7.451a.97.97 0 0 0 1.184.144l14.101-8.564a37.3 37.3 0 0 0 8.915 3.709l3.29 15.819a.96.96 0 0 0 .943.767h10.539c.443 0 .83-.302.935-.737l3.876-15.851a37.2 37.2 0 0 0 9.17-3.859l13.896 9.112a.964.964 0 0 0 1.212-.123l7.452-7.451a.96.96 0 0 0 .14-1.182l-5.073-8.36-1.641.518a.57.57 0 0 1-.641-.221l-7.415-10.853C84.558 92.283 74.394 98.98 62.657 98.98c-16.675 0-30.194-13.52-30.194-30.195 0-12.268 7.317-22.818 17.82-27.544v-7.79a37 37 0 0 0-5.514 2.432l-.008-.01-14.223-9.328a.96.96 0 0 0-.628-.15"/></svg>