<svg width="128" height="128" viewBox="0 0 128 128" fill="none" xmlns="http://www.w3.org/2000/svg">
<path d="M107.144 89.9302V111.038C107.144 117.665 101.809 123 95.1821 123H31.9623C25.3352 123 20 117.665 20 111.038V89.9302H107.144Z" fill="#1C71D8"/>
<path d="M31.9614 4C25.3343 4 20.0002 9.33403 20.0002 15.9611V108.86C20.0002 115.488 25.3343 120.824 31.9614 120.824H95.1831C101.81 120.824 107.144 115.488 107.144 108.86V15.9611C107.144 9.33403 101.81 4 95.1831 4H31.9614ZM56.795 12.957H70.3495C73.1017 12.957 75.3167 15.1741 75.3167 17.9263C75.3167 20.6785 73.1017 22.8935 70.3495 22.8935H56.795C54.0427 22.8935 51.8278 20.6785 51.8278 17.9263C51.8278 15.1741 54.0427 12.957 56.795 12.957Z" fill="#3584E4"/>
<path d="M93.0658 29.8706H34.0786C32.1975 29.8706 30.6726 31.3955 30.6726 33.2766V107.843C30.6726 109.724 32.1975 111.249 34.0786 111.249H93.0658C94.9469 111.249 96.4719 109.724 96.4719 107.843V33.2766C96.4719 31.3955 94.9469 29.8706 93.0658 29.8706Z" fill="#F6F5F4"/>
<path d="M93.0658 29.8706H34.0786C32.1975 29.8706 30.6726 31.3955 30.6726 33.2766V105.667C30.6726 107.548 32.1975 109.073 34.0786 109.073H93.0658C94.9469 109.073 96.4719 107.548 96.4719 105.667V33.2766C96.4719 31.3955 94.9469 29.8706 93.0658 29.8706Z" fill="white"/>
<path d="M89.1735 91.0014C89.1094 90.999 89.0445 90.9997 88.9802 91.0035H88.9737H88.9695C88.4522 91.0416 87.9673 91.28 87.6225 91.6707L87.6204 91.6728L79.8106 100.596L77.3631 98.1484C76.5993 97.3845 75.3396 97.3845 74.5757 98.1484C74.2069 98.5172 74 99.0172 74 99.54C74 100.063 74.2069 100.565 74.5757 100.934L78.5167 104.875C78.8991 105.257 79.4237 105.47 79.9742 105.448C80.5232 105.432 81.0329 105.187 81.3912 104.783L81.3934 104.781L90.5884 94.2753C90.9378 93.8793 91.1052 93.3627 91.0749 92.8476L91.0727 92.8412V92.837C91.0348 92.3196 90.7964 91.8347 90.4057 91.49C90.0592 91.1843 89.6224 91.0179 89.1735 91.0014Z" fill="#3F3F3F"/>
<path d="M56.795 11.3806C54.0428 11.3806 51.8279 13.5976 51.8279 16.3499V17.9263C51.8279 15.174 54.0428 12.957 56.795 12.957H70.3495C73.1018 12.957 75.3167 15.174 75.3167 17.9263V16.3499C75.3167 13.5976 73.1018 11.3806 70.3495 11.3806H56.795Z" fill="#1C71D8" fill-opacity="0.933333"/>
<rect x="36" y="37" width="43" height="8" rx="4" fill="#3F3F3F"/>
<rect x="36" y="51" width="25" height="8" rx="4" fill="#3F3F3F"/>
<rect x="66" y="51" width="25" height="8" rx="4" fill="#3F3F3F"/>
<rect x="36" y="65" width="49" height="8" rx="4" fill="#3F3F3F"/>
<rect x="36" y="79" width="38" height="8" rx="4" fill="#3F3F3F"/>
</svg>
