<svg xmlns="http://www.w3.org/2000/svg" xmlns:xlink="http://www.w3.org/1999/xlink" width="128" height="128" viewBox="0 0 128 128"><linearGradient id="a" gradientUnits="userSpaceOnUse"><stop offset="0" stop-color="#9a9996"/><stop offset="1" stop-color="#9a9996" stop-opacity="0"/></linearGradient><linearGradient xlink:href="#a" id="b" x1="38" x2="50" y1="248" y2="248" gradientTransform="matrix(0 -1.33333 -1.33333 0 414.662 134.675)"/><linearGradient xlink:href="#a" id="c" x1="38" x2="50" y1="248" y2="248" gradientTransform="matrix(0 -1.33333 -1.33333 0 374.779 134.675)"/><path fill="#deddda" d="m89.176 41.98 6.082 7.563 22.648-4.672 9.875 47.906a16.001 16.001 0 0 1-28.133 13.262l-35.406-44zm-50 0-6.082 7.563-22.649-4.672L.57 92.777a16.001 16.001 0 0 0 28.133 13.262l35.406-44zm0 0"/><path fill="#deddda" d="M41.113 28.008h46v32h-46zm0 0"/><path fill="#5e5c64" fill-opacity=".235" d="M60.445 59.29 28.461 99.04A16 16 0 0 1 .39 92.46l-.067.317a16 16 0 0 0 8.856 17.696 16 16 0 0 0 19.28-4.434l35.403-44zm7.102 0-3.422 2.75 35.406 44a16 16 0 0 0 19.281 4.433 15.996 15.996 0 0 0 8.852-17.696l-.062-.316a16 16 0 0 1-28.07 6.578zm0 0"/><g fill="#c0bfbc"><path d="M54.113 49.008c0 12.152-9.851 22-22 22-12.152 0-22-9.848-22-22 0-12.149 9.848-22 22-22 12.149 0 22 9.851 22 22m0 0"/><path d="M46.113 32.008h36v52h-36zm0 0"/><path d="M118.113 49.008c0 12.152-9.851 22-22 22-12.152 0-22-9.848-22-22 0-12.149 9.848-22 22-22 12.149 0 22 9.851 22 22m-60.117 31c0 7.668-6.215 13.883-13.883 13.883s-13.886-6.215-13.886-13.883 6.218-13.883 13.886-13.883 13.883 6.215 13.883 13.883m0 0"/><path d="M97.996 80.008c0 7.668-6.215 13.883-13.883 13.883s-13.886-6.215-13.886-13.883 6.218-13.883 13.886-13.883 13.883 6.215 13.883 13.883m0 0"/></g><path fill="#f6f5f4" d="M46.113 32.008h36v48h-36zm0 0"/><path fill="#f6f5f4" d="M57.996 78.008c0 7.668-6.215 13.883-13.883 13.883s-13.886-6.215-13.886-13.883 6.218-13.883 13.886-13.883 13.883 6.215 13.883 13.883m40 0c0 7.668-6.215 13.883-13.883 13.883s-13.886-6.215-13.886-13.883 6.218-13.883 13.886-13.883 13.883 6.215 13.883 13.883m0 0"/><path fill="#f6f5f4" d="M54.113 47.008c0 12.152-9.851 22-22 22-12.152 0-22-9.848-22-22 0-12.149 9.848-22 22-22 12.149 0 22 9.851 22 22m64 0c0 12.152-9.851 22-22 22-12.152 0-22-9.848-22-22 0-12.149 9.848-22 22-22 12.149 0 22 9.851 22 22m0 0"/><path fill="#3d3846" d="M29.996 36.008c-1.11 0-2 .89-2 2v6h-6c-1.11 0-2 .89-2 2v4c0 1.11.89 2 2 2h6v6c0 1.11.89 2 2 2h4c1.11 0 2-.89 2-2v-6h6c1.11 0 2-.89 2-2v-4c0-1.11-.89-2-2-2h-6v-6c0-1.11-.89-2-2-2zm0 0"/><path fill="#5e5c64" d="M29.996 34.008c-1.11 0-2 .89-2 2v6h-6c-1.11 0-2 .89-2 2v4c0 1.11.89 2 2 2h6v6c0 1.11.89 2 2 2h4c1.11 0 2-.89 2-2v-6h6c1.11 0 2-.89 2-2v-4c0-1.11-.89-2-2-2h-6v-6c0-1.11-.89-2-2-2zm0 0"/><path fill="#c01c28" d="M109.996 50.008v2c0 3.324-2.676 6-6 6s-6-2.676-6-6v-2zm0 0"/><path fill="#ed333b" d="M97.996 50.008c0 3.312 2.688 6 6 6s6-2.688 6-6-2.687-6-6-6-6 2.687-6 6m0 0"/><path fill="#1a5fb4" d="M93.996 42.008v2c0 3.324-2.676 6-6 6s-6-2.676-6-6v-2zm0 0"/><path fill="#3584e4" d="M81.996 42.008c0 3.312 2.688 6 6 6s6-2.688 6-6-2.687-6-6-6-6 2.687-6 6m0 0"/><path fill="#241f31" d="M54.113 78.008c0 5.523-4.48 10-10 10-5.523 0-10-4.477-10-10 0-5.524 4.477-10 10-10 5.52 0 10 4.476 10 10m40 0c0 5.523-4.48 10-10 10-5.523 0-10-4.477-10-10 0-5.524 4.477-10 10-10 5.52 0 10 4.476 10 10m0 0"/><path fill="#3d3846" d="M54.113 76.008c0 5.523-4.48 10-10 10-5.523 0-10-4.477-10-10 0-5.524 4.477-10 10-10 5.52 0 10 4.476 10 10m40 0c0 5.523-4.48 10-10 10-5.523 0-10-4.477-10-10 0-5.524 4.477-10 10-10 5.52 0 10 4.476 10 10m0 0"/><path fill="url(#b)" d="M83.996 68.008a8 8 0 1 0 0 16 8 8 0 0 0 0-16m0 0"/><path fill="url(#c)" d="M44.113 68.008a8 8 0 1 0 .001 16 8 8 0 0 0 0-16m0 0"/></svg>