<svg xmlns="http://www.w3.org/2000/svg" width="128" height="128" viewBox="0 0 128 128"><linearGradient id="b" x1="12" x2="116" y1="64" y2="64" gradientUnits="userSpaceOnUse"><stop offset="0" stop-color="#77767b"/><stop offset=".05" stop-color="#c0bfbc"/><stop offset=".1" stop-color="#9a9996"/><stop offset=".9" stop-color="#9a9996"/><stop offset=".95" stop-color="#c0bfbc"/><stop offset="1" stop-color="#77767b"/></linearGradient><filter id="a" width="100%" height="100%" x="0%" y="0%"><feColorMatrix in="SourceGraphic" values="0 0 0 0 1 0 0 0 0 1 0 0 0 0 1 0 0 0 1 0"/></filter><mask id="e"><g filter="url(#a)"><path fill-opacity=".05" d="M0 0h128v128H0z"/></g></mask><radialGradient id="f" cx="64" cy="194.19" r="44" gradientTransform="matrix(4.72727 0 0 1.63636 -230.545 -205.766)" gradientUnits="userSpaceOnUse"><stop offset="0" stop-color="#fff"/><stop offset="1" stop-color="#fff" stop-opacity=".094"/></radialGradient><clipPath id="c"><path d="M0 0h192v152H0z"/></clipPath><path fill="url(#b)" d="M20 22h88a8 8 0 0 1 8 8v78a8 8 0 0 1-8 8H20a8 8 0 0 1-8-8V30a8 8 0 0 1 8-8m0 0"/><path fill="#deddda" d="M20 12h88a8 8 0 0 1 8 8v80a8 8 0 0 1-8 8H20a8 8 0 0 1-8-8V20a8 8 0 0 1 8-8m0 0"/><path fill="#241f31" d="M20 104h88c2.21 0 4-1.79 4-4V20c0-2.21-1.79-4-4-4H20c-2.21 0-4 1.79-4 4v80c0 2.21 1.79 4 4 4m0 0"/><g clip-path="url(#c)" mask="url(#e)" transform="translate(-8 -16)"><path fill="url(#f)" d="M116 116H28V38h88zm0 0"/></g><path fill="#ff7800" d="M24 28h28v4H24zm0 0"/><path fill="#deddda" d="M24 36h16v4H24zm0 0"/><path fill="#3584e4" d="M32 44h42v4H32zm0 0"/><path fill="#deddda" d="M32 52h22v4H32zm8 8h36v4H40zm0 0"/><path fill="#8ff0a4" d="M40 68h20v4H40zm0 0"/><path fill="#ff7800" d="M48 76h24v4H48zm0 0"/><path fill="#deddda" d="M24 84h32v4H24zm0 0"/><path fill="#3584e4" d="M24 92h18v4H24zm0 0"/><path fill="#8ff0a4" d="M32 76h14v4H32zm0 0"/><path fill="#deddda" d="M62 68h20v4H62zm0 0"/><path fill="#3584e4" d="M78 60h18v4H78zm0 0"/></svg>