<svg xmlns="http://www.w3.org/2000/svg" width="128" height="128" fill="none" viewBox="0 0 128 128"><path fill="#464153" d="M89.893 84.268H37.179a8.786 8.786 0 0 0-8.786 8.785v24.161A8.786 8.786 0 0 0 37.178 126h52.715a8.786 8.786 0 0 0 8.785-8.786v-24.16a8.786 8.786 0 0 0-8.785-8.786"/><path fill="url(#a)" d="M94.286 38.143h-61.5A8.786 8.786 0 0 0 24 46.928v70.286A8.786 8.786 0 0 0 32.786 126h61.5a8.786 8.786 0 0 0 8.785-8.786V46.929a8.785 8.785 0 0 0-8.785-8.786"/><path fill="url(#b)" d="M94.286 3h-61.5A8.786 8.786 0 0 0 24 11.786v92.25a8.785 8.785 0 0 0 8.786 8.785h61.5a8.785 8.785 0 0 0 8.785-8.785v-92.25A8.785 8.785 0 0 0 94.286 3"/><path fill="#3d3846" d="M94.286 7.393h-61.5a4.393 4.393 0 0 0-4.393 4.393v92.25a4.39 4.39 0 0 0 4.393 4.392h61.5a4.39 4.39 0 0 0 4.392-4.392v-92.25a4.393 4.393 0 0 0-4.392-4.393"/><path fill="#9a9996" d="M81.107 15.08a2.196 2.196 0 1 0 0-4.393 2.196 2.196 0 0 0 0 4.393m-13.178-3.294h-8.786a1.098 1.098 0 0 0 0 2.196h8.786a1.098 1.098 0 0 0 0-2.196"/><path fill="#c0bfbc" d="M39.375 3h-4.393v4.393h4.393z"/><path fill="#deddda" d="M39.375 108.428h-4.393v4.393h4.393z"/><path fill="#77767b" d="M39.375 126h-4.393v-13.179h4.393z"/><path fill="#deddda" d="M92.09 3h-4.394v4.393h4.393z"/><path fill="#c0bfbc" d="M92.09 108.428h-4.394v4.393h4.393z"/><path fill="#77767b" d="M92.09 126h-4.394v-13.179h4.393z"/><path fill="#241f31" d="M66.281 116.116h-5.49a2.745 2.745 0 1 0 0 5.491h5.49a2.745 2.745 0 1 0 0-5.491"/><path fill="#9a9996" d="M58.1 118.312a2.74 2.74 0 0 0 2.69 3.295h5.491a2.74 2.74 0 0 0 2.69-3.295 2.74 2.74 0 0 1-2.69 2.197h-5.49a2.74 2.74 0 0 1-2.69-2.197"/><path fill="#241f31" d="M44.317 117.214a1.648 1.648 0 1 0 .001 3.296 1.648 1.648 0 0 0-.001-3.296m4.393 0a1.647 1.647 0 1 0 0 3.295 1.647 1.647 0 0 0 0-3.295m4.392 0a1.648 1.648 0 1 0 .002 3.296 1.648 1.648 0 0 0-.002-3.296m20.867 3.295a1.648 1.648 0 1 0 0-3.295 1.648 1.648 0 0 0 0 3.295m4.393 0a1.648 1.648 0 1 0 0-3.295 1.648 1.648 0 0 0 0 3.295m4.393 0a1.648 1.648 0 1 0-.001-3.295 1.648 1.648 0 0 0 0 3.295"/><path fill="#9a9996" d="M45.87 118.31a1.64 1.64 0 0 1-1.553 1.101 1.65 1.65 0 0 1-1.553-1.096 1.64 1.64 0 0 0 .388 1.711 1.648 1.648 0 0 0 2.718-1.716m4.393 0a1.645 1.645 0 0 1-2.504.799 1.65 1.65 0 0 1-.602-.794 1.64 1.64 0 0 0 .388 1.711 1.647 1.647 0 0 0 2.718-1.716m4.392 0a1.64 1.64 0 0 1-1.553 1.101 1.65 1.65 0 0 1-1.552-1.096 1.644 1.644 0 0 0 1.553 2.194 1.647 1.647 0 0 0 1.552-2.199m20.867 0a1.645 1.645 0 0 1-2.504.799 1.65 1.65 0 0 1-.602-.794 1.64 1.64 0 0 0 .388 1.711 1.647 1.647 0 0 0 2.718-1.716m4.392 0a1.64 1.64 0 0 1-1.552 1.101 1.65 1.65 0 0 1-1.553-1.096 1.644 1.644 0 0 0 1.553 2.194 1.647 1.647 0 0 0 1.552-2.199m4.393 0a1.645 1.645 0 0 1-2.503.799 1.65 1.65 0 0 1-.603-.794 1.64 1.64 0 0 0 .389 1.711 1.647 1.647 0 0 0 2.717-1.716"/><path fill="#f8e45c" d="M43.768 98.545a6.59 6.59 0 1 0 0-13.179 6.59 6.59 0 0 0 0 13.179"/><path fill="#33d17a" d="M63.536 98.545a6.59 6.59 0 1 0 0-13.179 6.59 6.59 0 0 0 0 13.179"/><path fill="#ed333b" d="M83.304 98.545a6.59 6.59 0 1 0 0-13.179 6.59 6.59 0 0 0 0 13.179M43.768 77.679a6.59 6.59 0 1 0 0-13.18 6.59 6.59 0 0 0 0 13.18"/><path fill="#62a0ea" d="M63.536 77.679a6.59 6.59 0 1 0 0-13.18 6.59 6.59 0 0 0 0 13.18"/><path fill="#33d17a" d="M83.304 77.679a6.59 6.59 0 1 0 0-13.18 6.59 6.59 0 0 0 0 13.18M43.768 56.812a6.59 6.59 0 1 0 0-13.178 6.59 6.59 0 0 0 0 13.178"/><path fill="#deddda" d="M63.536 56.812a6.59 6.59 0 1 0 0-13.178 6.59 6.59 0 0 0 0 13.178"/><path fill="#f8e45c" d="M83.304 56.812a6.59 6.59 0 1 0 0-13.178 6.59 6.59 0 0 0 0 13.178"/><path fill="#62a0ea" d="M43.768 35.946a6.59 6.59 0 1 0 0-13.178 6.59 6.59 0 0 0 0 13.178"/><path fill="#ed333b" d="M63.536 35.946a6.59 6.59 0 1 0 0-13.178 6.59 6.59 0 0 0 0 13.178"/><path fill="#deddda" d="M83.304 35.946a6.59 6.59 0 1 0 0-13.178 6.59 6.59 0 0 0 0 13.178"/><defs><linearGradient id="a" x1="24" x2="103.071" y1="113.449" y2="113.449" gradientUnits="userSpaceOnUse"><stop stop-color="#3d3846"/><stop offset=".045" stop-color="#9a9996"/><stop offset=".091" stop-color="#5e5c64"/><stop offset=".909" stop-color="#5e5c64"/><stop offset=".953" stop-color="#9a9996"/><stop offset="1" stop-color="#3d3846"/></linearGradient><linearGradient id="b" x1="-.71" x2="95.253" y1="-5.786" y2="82.979" gradientUnits="userSpaceOnUse"><stop stop-color="#deddda"/><stop offset=".339" stop-color="#77767b"/><stop offset=".72" stop-color="#c0bfbc"/><stop offset="1" stop-color="#77767b"/></linearGradient></defs></svg>