<svg xmlns="http://www.w3.org/2000/svg" width="128" height="128" fill="none" viewBox="0 0 128 128"><path fill="#1d99f3" d="M100 12H28c-8.837 0-16 7.163-16 16v72c0 8.837 7.163 16 16 16h72c8.837 0 16-7.163 16-16V28c0-8.837-7.163-16-16-16"/><path fill="#fcfcfc" d="m70.132 24-13.01 1.245v53.57l12.872-1.937v-22.84L87.297 79.37l13.564-4.292-17.717-24.362L101 27.737l-13.841-3.182-17.165 22.978zm-29.49 13.054a.66.66 0 0 0-.4.191l-5.105 5.105a.66.66 0 0 0-.097.81l5.978 9.846a25.6 25.6 0 0 0-2.518 5.732L27.525 61.02a.66.66 0 0 0-.525.647v7.22c0 .305.209.57.503.64l10.653 2.604a25.5 25.5 0 0 0 2.611 6.62l-6.166 9.403a.66.66 0 0 0 .087.83l5.104 5.105c.214.214.55.256.811.099l9.662-5.868a25.6 25.6 0 0 0 6.108 2.541l2.255 10.839a.66.66 0 0 0 .646.526h7.22a.66.66 0 0 0 .642-.505l2.655-10.861a25.5 25.5 0 0 0 6.283-2.644l9.522 6.243a.66.66 0 0 0 .83-.084l5.106-5.106a.66.66 0 0 0 .096-.81l-3.476-5.728-1.125.356a.39.39 0 0 1-.439-.152l-5.08-7.436c-3.423 6.699-10.387 11.288-18.429 11.288-11.425 0-20.688-9.264-20.688-20.69 0-8.405 5.013-15.634 12.21-18.872v-5.337a25.5 25.5 0 0 0-3.779 1.665l-.005-.006-9.745-6.391a.66.66 0 0 0-.43-.105z"/></svg>