<svg xmlns="http://www.w3.org/2000/svg" xmlns:xlink="http://www.w3.org/1999/xlink" width="128" height="128" fill="none" viewBox="0 0 128 128"><defs><radialGradient xlink:href="#a" id="d" cx="49.71" cy="66.531" r="16.5" fx="49.71" fy="66.531" gradientTransform="matrix(1.40698 -.00004 .00012 4.48894 -8.239 -209.968)" gradientUnits="userSpaceOnUse"/><radialGradient xlink:href="#a" id="c" cx="57.025" cy="49.448" r="16.5" fx="57.025" fy="49.448" gradientTransform="matrix(1.40698 -.00004 .00012 4.48894 -9.315 -211.968)" gradientUnits="userSpaceOnUse"/><linearGradient id="a"><stop offset="0" style="stop-color:#fff;stop-opacity:1"/><stop offset="1" style="stop-color:#fff;stop-opacity:.59226412"/></linearGradient><clipPath id="b" clipPathUnits="userSpaceOnUse"><path d="M50 8c-2.216 0-4 1.784-4 4s1.784 4 4 4h2v32L23.788 88.8C20 94 19.876 97.97 20 103.5v.01c.005 9.12 7.378 16.49 16.5 16.49h55c9.125 0 16.499-7.373 16.5-16.498.718-7.466-2.368-12.568-6.39-18.273C92.99 72.98 84.784 59.92 76 48V16h2c2.216 0 4-1.784 4-4s-1.784-4-4-4z" style="color:#000;font-style:normal;font-variant:normal;font-weight:400;font-stretch:normal;font-size:medium;line-height:normal;font-family:sans-serif;font-variant-ligatures:normal;font-variant-position:normal;font-variant-caps:normal;font-variant-numeric:normal;font-variant-alternates:normal;font-feature-settings:normal;text-indent:0;text-align:start;text-decoration:none;text-decoration-line:none;text-decoration-style:solid;text-decoration-color:#000;letter-spacing:normal;word-spacing:normal;text-transform:none;writing-mode:lr-tb;direction:ltr;text-orientation:mixed;dominant-baseline:auto;baseline-shift:baseline;text-anchor:start;white-space:normal;shape-padding:0;clip-rule:nonzero;display:inline;overflow:visible;visibility:visible;opacity:.322;isolation:auto;mix-blend-mode:normal;color-interpolation:sRGB;color-interpolation-filters:linearRGB;solid-color:#000;solid-opacity:1;vector-effect:none;fill:#99c1f1;fill-opacity:1;fill-rule:nonzero;stroke:none;stroke-width:10;stroke-linecap:round;stroke-linejoin:miter;stroke-miterlimit:4;stroke-dasharray:none;stroke-dashoffset:0;stroke-opacity:1;color-rendering:auto;image-rendering:auto;shape-rendering:auto;text-rendering:auto"/></clipPath></defs><path d="M62 8c-2.216 0-4 1.784-4 4s1.784 4 4 4h2v32L35.788 88.8C32 94 31.876 97.97 32 103.5v.01c.005 9.12 7.378 16.49 16.5 16.49h55c9.125 0 16.499-7.373 16.5-16.498.718-7.466-2.368-12.568-6.39-18.273C104.99 72.98 96.784 59.92 88 48V16h2c2.216 0 4-1.784 4-4s-1.784-4-4-4z" style="color:#000;font-style:normal;font-variant:normal;font-weight:400;font-stretch:normal;font-size:medium;line-height:normal;font-family:sans-serif;font-variant-ligatures:normal;font-variant-position:normal;font-variant-caps:normal;font-variant-numeric:normal;font-variant-alternates:normal;font-feature-settings:normal;text-indent:0;text-align:start;text-decoration:none;text-decoration-line:none;text-decoration-style:solid;text-decoration-color:#000;letter-spacing:normal;word-spacing:normal;text-transform:none;writing-mode:lr-tb;direction:ltr;text-orientation:mixed;dominant-baseline:auto;baseline-shift:baseline;text-anchor:start;white-space:normal;shape-padding:0;clip-rule:nonzero;display:inline;overflow:visible;visibility:visible;opacity:.8;isolation:auto;mix-blend-mode:normal;color-interpolation:sRGB;color-interpolation-filters:linearRGB;solid-color:#000;solid-opacity:1;vector-effect:none;fill:#99c1f1;fill-opacity:1;fill-rule:nonzero;stroke:none;stroke-width:10;stroke-linecap:round;stroke-linejoin:miter;stroke-miterlimit:4;stroke-dasharray:none;stroke-dashoffset:0;stroke-opacity:1;color-rendering:auto;image-rendering:auto;shape-rendering:auto;text-rendering:auto"/><path d="M9.959 10.009a1.99 1.99 0 0 0-1.547.777A2 2 0 0 0 8 12v108.01a1.995 1.995 0 0 0 2 1.99h64a1.995 1.995 0 0 0 2-1.99L11.715 11.003a1.99 1.99 0 0 0-1.756-.994M24 65.999l26 42H24Z" style="fill:#e5a50a;fill-opacity:1;stroke:none;stroke-width:.999998;stroke-linecap:round;stroke-linejoin:round;stroke-dasharray:none"/><path fill="#f6d32d" d="M76 120.009 11.715 9.004A1.991 1.991 0 0 0 8 10v110.009ZM50 104H24V62Z" style="fill:#f8e45c;stroke-width:.999997"/><g stroke="#b38108" stroke-width="1.173" style="stroke:#f5c211"><path d="M13.864 117.5H8m5.864-17.593H8m5.864-17.593H8m5.864-17.593H8m5.864-17.592H8m5.864-17.593H8m3.518 84.445H8m3.518-3.518H8m3.518-3.519H8m3.518-3.518H8m3.518-7.038H8m3.518-3.518H8m3.518-3.518H8m3.518-3.519H8m3.518-7.037H8m3.518-3.519H8m3.518-3.518H8m3.518-3.519H8m3.518-7.037H8m3.518-3.518H8m3.518-3.519H8m3.518-3.519H8m3.518-7.037H8m3.518-3.519H8m3.518-3.518H8m3.518-3.519H8m3.518-7.037H8m3.518-3.518H8m3.518-3.519H8m3.518-3.518H8" style="stroke-width:1;stroke-dasharray:none;stroke:#f5c211"/></g><path d="M62 8c-2.216 0-4 1.784-4 4s1.784 4 4 4h2v32L35.788 88.8C32 94 31.876 97.97 32 103.5v.01c.005 9.12 7.378 16.49 16.5 16.49h55c9.125 0 16.499-7.373 16.5-16.498.718-7.466-2.368-12.568-6.39-18.273C104.99 72.98 96.784 59.92 88 48V16h2c2.216 0 4-1.784 4-4s-1.784-4-4-4z" style="color:#000;font-style:normal;font-variant:normal;font-weight:400;font-stretch:normal;font-size:medium;line-height:normal;font-family:sans-serif;font-variant-ligatures:normal;font-variant-position:normal;font-variant-caps:normal;font-variant-numeric:normal;font-variant-alternates:normal;font-feature-settings:normal;text-indent:0;text-align:start;text-decoration:none;text-decoration-line:none;text-decoration-style:solid;text-decoration-color:#000;letter-spacing:normal;word-spacing:normal;text-transform:none;writing-mode:lr-tb;direction:ltr;text-orientation:mixed;dominant-baseline:auto;baseline-shift:baseline;text-anchor:start;white-space:normal;shape-padding:0;clip-rule:nonzero;display:inline;overflow:visible;visibility:visible;opacity:.6;isolation:auto;mix-blend-mode:normal;color-interpolation:sRGB;color-interpolation-filters:linearRGB;solid-color:#000;solid-opacity:1;vector-effect:none;fill:#99c1f1;fill-opacity:1;fill-rule:nonzero;stroke:none;stroke-width:10;stroke-linecap:round;stroke-linejoin:miter;stroke-miterlimit:4;stroke-dasharray:none;stroke-dashoffset:0;stroke-opacity:1;color-rendering:auto;image-rendering:auto;shape-rendering:auto;text-rendering:auto"/><path d="M72 47h10m-10-4h10m-10-4h10m-14-4h12m-8-4h10m-10-4h10m-10-4h10m-14-4h10" clip-path="url(#b)" style="fill:none;stroke:#fff;stroke-width:2;stroke-linecap:round;stroke-linejoin:miter;stroke-miterlimit:4;stroke-dasharray:none;stroke-opacity:.519685" transform="translate(12)"/><path d="M90.924 10H63.076" style="opacity:.8;fill:none;stroke:url(#c);stroke-width:2;stroke-linecap:round;stroke-linejoin:miter;stroke-dasharray:none"/><path d="M94.645 80.691c-5.21-.173-11.89 1.935-18.645 3.91V111.8h24.678c6.176 0 11.066-4.886 11.076-11.059-.41-6.834-5.976-11.297-9.625-16.752-1.764-2.267-4.36-3.193-7.484-3.297" style="color:#000;font-style:normal;font-variant:normal;font-weight:400;font-stretch:normal;font-size:medium;line-height:normal;font-family:sans-serif;font-variant-ligatures:normal;font-variant-position:normal;font-variant-caps:normal;font-variant-numeric:normal;font-variant-alternates:normal;font-feature-settings:normal;text-indent:0;text-align:start;text-decoration:none;text-decoration-line:none;text-decoration-style:solid;text-decoration-color:#000;letter-spacing:normal;word-spacing:normal;text-transform:none;writing-mode:lr-tb;direction:ltr;text-orientation:mixed;dominant-baseline:auto;baseline-shift:baseline;text-anchor:start;white-space:normal;shape-padding:0;clip-rule:nonzero;display:inline;overflow:visible;visibility:visible;isolation:auto;mix-blend-mode:normal;color-interpolation:sRGB;color-interpolation-filters:linearRGB;solid-color:#000;solid-opacity:1;vector-effect:none;fill:#26a269;fill-opacity:1;fill-rule:nonzero;stroke:none;stroke-width:10;stroke-linecap:round;stroke-linejoin:miter;stroke-miterlimit:4;stroke-dasharray:none;stroke-dashoffset:0;stroke-opacity:1;color-rendering:auto;image-rendering:auto;shape-rendering:auto;text-rendering:auto"/><path d="M49.377 83.988c-3.65 5.455-9.214 9.918-9.624 16.752.01 6.173 4.9 11.058 11.076 11.058h49.848c6.18 0 11.073-4.892 11.076-11.072-.25-6.612-5.887-11.662-9.627-16.738-11.533 13.016-43.523-11.862-52.75 0" style="color:#000;font-style:normal;font-variant:normal;font-weight:400;font-stretch:normal;font-size:medium;line-height:normal;font-family:sans-serif;font-variant-ligatures:normal;font-variant-position:normal;font-variant-caps:normal;font-variant-numeric:normal;font-variant-alternates:normal;font-feature-settings:normal;text-indent:0;text-align:start;text-decoration:none;text-decoration-line:none;text-decoration-style:solid;text-decoration-color:#000;letter-spacing:normal;word-spacing:normal;text-transform:none;writing-mode:lr-tb;direction:ltr;text-orientation:mixed;dominant-baseline:auto;baseline-shift:baseline;text-anchor:start;white-space:normal;shape-padding:0;clip-rule:nonzero;display:inline;overflow:visible;visibility:visible;isolation:auto;mix-blend-mode:normal;color-interpolation:sRGB;color-interpolation-filters:linearRGB;solid-color:#000;solid-opacity:1;vector-effect:none;fill:#33d17a;fill-opacity:1;fill-rule:nonzero;stroke:none;stroke-width:10;stroke-linecap:round;stroke-linejoin:miter;stroke-miterlimit:4;stroke-dasharray:none;stroke-dashoffset:0;stroke-opacity:1;color-rendering:auto;image-rendering:auto;shape-rendering:auto;text-rendering:auto"/><path d="M120.08 102.38q-.026.553-.08 1.122c-.001 9.125-7.375 16.498-16.5 16.498h-55c-9.122 0-16.495-7.37-16.5-16.49v-.01q-.012-.526-.02-1.035c-.018.967-.004 1.972.02 3.035v.01c.005 9.12 7.378 16.49 16.5 16.49h55c9.125 0 16.499-7.373 16.5-16.498.105-1.088.128-2.125.08-3.121" style="color:#000;font-style:normal;font-variant:normal;font-weight:400;font-stretch:normal;font-size:medium;line-height:normal;font-family:sans-serif;font-variant-ligatures:normal;font-variant-position:normal;font-variant-caps:normal;font-variant-numeric:normal;font-variant-alternates:normal;font-feature-settings:normal;text-indent:0;text-align:start;text-decoration:none;text-decoration-line:none;text-decoration-style:solid;text-decoration-color:#000;letter-spacing:normal;word-spacing:normal;text-transform:none;writing-mode:lr-tb;direction:ltr;text-orientation:mixed;dominant-baseline:auto;baseline-shift:baseline;text-anchor:start;white-space:normal;shape-padding:0;clip-rule:nonzero;display:inline;overflow:visible;visibility:visible;opacity:.8;isolation:auto;mix-blend-mode:normal;color-interpolation:sRGB;color-interpolation-filters:linearRGB;solid-color:#000;solid-opacity:1;vector-effect:none;fill:#62a0ea;fill-opacity:1;fill-rule:nonzero;stroke:none;stroke-width:10;stroke-linecap:round;stroke-linejoin:miter;stroke-miterlimit:4;stroke-dasharray:none;stroke-dashoffset:0;stroke-opacity:1;color-rendering:auto;image-rendering:auto;shape-rendering:auto;text-rendering:auto"/><path d="m49.25 95.375 22.625-39" style="opacity:.4;fill:none;stroke:url(#d);stroke-width:8;stroke-linecap:round;stroke-linejoin:miter;stroke-dasharray:none"/><path d="M57.004 80.688c-3.19.08-5.837.998-7.627 3.3-3.649 5.455-9.213 9.918-9.623 16.752.01 6.173 4.9 11.059 11.076 11.059h49.848a11.6 11.6 0 0 0 2.248-.223c.493-.099.97-.24 1.435-.402.219-.076.439-.146.65-.235l.003-.002q.496-.208.967-.46l.004-.002.115-.069a11 11 0 0 0 1.644-1.111l.004-.004q.407-.335.78-.707l.004-.004.066-.074c.47-.479.9-.997 1.275-1.555l.004-.006c.03-.045.055-.094.084-.139.165-.253.323-.508.467-.775a11 11 0 0 0 1.268-4.162q.057-.556.058-1.13v-.015c-.249-6.59-5.852-11.628-9.591-16.687l-.034-.05c-1.763-2.267-4.359-3.192-7.484-3.296-5.21-.173-11.89 1.935-18.645 3.91v.145c-6.86-1.998-13.68-4.192-18.996-4.058" style="color:#000;font-style:normal;font-variant:normal;font-weight:400;font-stretch:normal;font-size:medium;line-height:normal;font-family:sans-serif;font-variant-ligatures:normal;font-variant-position:normal;font-variant-caps:normal;font-variant-numeric:normal;font-variant-alternates:normal;font-feature-settings:normal;text-indent:0;text-align:start;text-decoration:none;text-decoration-line:none;text-decoration-style:solid;text-decoration-color:#000;letter-spacing:normal;word-spacing:normal;text-transform:none;writing-mode:lr-tb;direction:ltr;text-orientation:mixed;dominant-baseline:auto;baseline-shift:baseline;text-anchor:start;white-space:normal;shape-padding:0;clip-rule:nonzero;display:inline;overflow:visible;visibility:visible;opacity:.1;isolation:auto;mix-blend-mode:normal;color-interpolation:sRGB;color-interpolation-filters:linearRGB;solid-color:#000;solid-opacity:1;vector-effect:none;fill:#99c1f1;fill-opacity:1;fill-rule:nonzero;stroke:none;stroke-width:10;stroke-linecap:round;stroke-linejoin:miter;stroke-miterlimit:4;stroke-dasharray:none;stroke-dashoffset:0;stroke-opacity:1;color-rendering:auto;image-rendering:auto;shape-rendering:auto;text-rendering:auto"/></svg>