<svg xmlns="http://www.w3.org/2000/svg" xmlns:xlink="http://www.w3.org/1999/xlink" width="128" height="128" viewBox="0 0 128 128"><defs><linearGradient id="d"><stop offset="0" style="stop-color:#f9bbe8;stop-opacity:1"/><stop offset="1" style="stop-color:#f26b9e;stop-opacity:1"/></linearGradient><linearGradient xlink:href="#a" id="h" x1="128.817" x2="158.518" y1="-97.698" y2="-127.399" gradientTransform="matrix(-.184 .36799 .184 .36799 68.782 .707)" gradientUnits="userSpaceOnUse"/><linearGradient id="a"><stop offset="0" style="stop-color:#d0bb8e;stop-opacity:1"/><stop offset="1" style="stop-color:#fff;stop-opacity:1"/></linearGradient><linearGradient xlink:href="#b" id="i" x1="-253.63" x2="-230.06" y1="-64.518" y2="-64.518" gradientTransform="matrix(.84853 0 0 1 187.213 166.518)" gradientUnits="userSpaceOnUse"/><linearGradient id="b"><stop offset="0" style="stop-color:#9a9996;stop-opacity:1"/><stop offset=".5" style="stop-color:#deddda;stop-opacity:1"/><stop offset="1" style="stop-color:#c0bfbc;stop-opacity:1"/></linearGradient><radialGradient xlink:href="#d" id="g" cx="-239.488" cy="-51.803" r="11.785" fx="-239.488" fy="-51.803" gradientTransform="matrix(1 0 0 .84853 0 -8.56)" gradientUnits="userSpaceOnUse"/></defs><linearGradient id="e" x1="20" x2="108" y1="88" y2="88" gradientTransform="translate(12)" gradientUnits="userSpaceOnUse"><stop offset="0" stop-color="#1a5fb4"/><stop offset=".034" stop-color="#1c71d8"/><stop offset=".068" stop-color="#3584e4"/><stop offset=".932" stop-color="#3584e4"/><stop offset=".966" stop-color="#1c71d8"/><stop offset="1" stop-color="#1a5fb4"/></linearGradient><linearGradient id="f" x1="88.575" x2="367.43" y1="1.579" y2="1.579" gradientTransform="matrix(.27254 0 0 .2959 13.86 50.447)" gradientUnits="userSpaceOnUse"><stop offset="0" stop-color="#1a5fb4"/><stop offset=".026" stop-color="#3584e4"/><stop offset=".973" stop-color="#3584e4"/><stop offset="1" stop-color="#1a5fb4"/></linearGradient><path fill="url(#e)" d="M40.723 44h70.554A8.724 8.724 0 0 1 120 52.723v58.554a8.724 8.724 0 0 1-8.723 8.723H40.723A8.724 8.724 0 0 1 32 111.277V52.723A8.724 8.724 0 0 1 40.723 44m0 0" style="fill:url(#e)"/><path fill="#62a0ea" d="M40.723 8h70.554A8.724 8.724 0 0 1 120 16.723v70.554A8.724 8.724 0 0 1 111.277 96H40.723A8.724 8.724 0 0 1 32 87.277V16.723A8.724 8.724 0 0 1 40.723 8m0 0"/><path fill="#62a0ea" d="M60 80h32c2.21 0 4 1.79 4 4v22c0 2.21-1.79 4-4 4H60c-2.21 0-4-1.79-4-4V84c0-2.21 1.79-4 4-4m0 0"/><path fill="url(#f)" d="M42 14h68c2.21 0 4 1.79 4 4v68c0 2.21-1.79 4-4 4H42c-2.21 0-4-1.79-4-4V18c0-2.21 1.79-4 4-4m0 0" style="fill:url(#f)"/><path fill="#deddda" d="M60 84h32c2.21 0 4 1.79 4 4v12c0 2.21-1.79 4-4 4H60c-2.21 0-4-1.79-4-4V88c0-2.21 1.79-4 4-4m0 0"/><path fill="#fff" d="M42.203 20c-1.203 0-2.18 1.031-2.18 2.305l-.062 66.773S41 89.66 42 89.66h14V96h40v-6.34h14c1 0 2.012-.566 2.012-.566l-.067-66.79c0-1.273-.976-2.304-2.18-2.304Zm0 0"/><path fill="none" stroke="#3d3846" stroke-width="4" d="m52 68 6 6 10-10"/><path fill="#c0bfbc" d="M76 40h24v4H76Zm0 28h24v4H76Zm0 0"/><path fill="none" stroke="#3d3846" stroke-width="4" d="m52 40 6 6 10-10"/><g style="fill:#5e5c64;stroke-width:1.08559" transform="matrix(.6 .7071 .6 -.7071 -187.213 166.518)"><g style="fill:#5e5c64;fill-opacity:1"><path d="M-253.63-66.518h23.57v8h-23.57z" style="opacity:1;fill:#f26b9e;fill-opacity:1;stroke:none;stroke-width:2.17119;stroke-linecap:round;stroke-miterlimit:4;stroke-dasharray:none;stroke-opacity:1" transform="rotate(225 .414 -1)"/></g><ellipse cx="-241.845" cy="-56.518" rx="11.785" ry="10" style="opacity:1;fill:url(#g);fill-opacity:1;stroke:none;stroke-width:2.17119;stroke-linecap:round;stroke-miterlimit:4;stroke-dasharray:none;stroke-opacity:1" transform="rotate(-135)"/></g><path d="M18 7.858 8 22h20z" style="display:inline;vector-effect:none;fill:url(#h);fill-opacity:1;stroke:none;stroke-width:12.4899;stroke-linecap:round;stroke-linejoin:miter;stroke-miterlimit:4;stroke-dasharray:none;stroke-dashoffset:0;stroke-opacity:1;marker:none;marker-start:none;marker-mid:none;marker-end:none;paint-order:normal"/><path d="M18 7.858 13.657 14h8.686z" style="display:inline;vector-effect:none;fill:#241f31;fill-opacity:1;stroke:none;stroke-width:12.4899;stroke-linecap:round;stroke-linejoin:miter;stroke-miterlimit:4;stroke-dasharray:none;stroke-dashoffset:0;stroke-opacity:1;marker:none;marker-start:none;marker-mid:none;marker-end:none;paint-order:normal"/><path d="M26 21.929H10V99.88h16z" style="display:inline;fill:#f6d32d;fill-opacity:1;stroke:none;stroke-width:.506438px;stroke-linecap:butt;stroke-linejoin:miter;stroke-opacity:1"/><path d="M14 21.929H8V99.88h6z" style="display:inline;fill:#f9f06b;fill-opacity:1;stroke:none;stroke-width:.358106px;stroke-linecap:butt;stroke-linejoin:miter;stroke-opacity:1"/><path d="M22 21.929h6V99.88h-6z" style="display:inline;fill:#e5a50a;fill-opacity:1;stroke:none;stroke-width:.358106px;stroke-linecap:butt;stroke-linejoin:miter;stroke-opacity:1"/><path d="M-28 98h20v8h-20z" style="fill:url(#i);fill-opacity:1;stroke:none;stroke-width:2;stroke-linecap:round;stroke-miterlimit:4;stroke-dasharray:none;stroke-opacity:1" transform="scale(-1 1)"/></svg>