<svg xmlns="http://www.w3.org/2000/svg" width="16" height="16"><path d="M7.883 0a8 8 0 0 0-.963.074 8 8 0 0 0-4.604 2.291 8.014 8.014 0 0 0-1.228 9.666 8.01 8.01 0 0 0 9.016 3.686 8.004 8.004 0 0 0 5.892-7.752 1 1 0 1 0-1.998.01 5.99 5.99 0 0 1-4.42 5.812 5.995 5.995 0 0 1-6.764-2.766 5.99 5.99 0 0 1 .922-7.248 5.99 5.99 0 0 1 7.239-.984 1 1 0 1 0 .992-1.736A7.96 7.96 0 0 0 7.883 0m7.209 2.002a1 1 0 0 0-.844.338L7.951 9.535 5.707 7.291a1 1 0 0 0-1.414 0 1 1 0 0 0 0 1.416l3 3a1 1 0 0 0 1.46-.049l7-8a1 1 0 0 0-.093-1.412 1 1 0 0 0-.568-.244" style="color:#000;fill:#222;stroke-linecap:round;stroke-linejoin:round;stroke-dashoffset:26.4;-inkscape-stroke:none"/></svg>