<svg xmlns="http://www.w3.org/2000/svg" width="16" height="16"><path d="M8 0a4.46 4.46 0 0 0-3.162 1.307L1.303 4.842c-1.737 1.736-1.737 4.58 0 6.32l3.535 3.535a4.48 4.48 0 0 0 6.32 0l3.54-3.535a4.485 4.485 0 0 0 0-6.32l-3.54-3.535A4.45 4.45 0 0 0 8 0m0 1.967c.632 0 1.264.248 1.756.742l3.539 3.535a2.457 2.457 0 0 1 0 3.512l-3.54 3.539a2.457 2.457 0 0 1-3.51 0L2.704 9.76a2.46 2.46 0 0 1 0-3.516l3.54-3.539A2.47 2.47 0 0 1 8 1.967M7 3.98v5h2v-5zm1 6c-.55 0-1 .449-1 1s.45 1 1 1 1-.45 1-1c0-.551-.45-1-1-1"/></svg>