<svg xmlns="http://www.w3.org/2000/svg" width="16" height="16"><path d="M8 0a4.46 4.46 0 0 0-3.162 1.305L1.303 4.84c-1.737 1.736-1.737 4.582 0 6.322l3.535 3.535a4.48 4.48 0 0 0 6.32 0l3.54-3.535a4.49 4.49 0 0 0 0-6.322l-3.54-3.535A4.45 4.45 0 0 0 8 0m0 1.967c.632 0 1.264.248 1.756.742l3.539 3.533a2.457 2.457 0 0 1 0 3.512l-3.54 3.539a2.457 2.457 0 0 1-3.51 0l-3.54-3.535a2.46 2.46 0 0 1 0-3.516l3.54-3.537A2.47 2.47 0 0 1 8 1.967m-.012 1.015A3 3 0 0 0 5 5.978h2a.99.99 0 0 1 .617-.921A1 1 0 1 1 8 6.979c-.55 0-1 .449-1 1v2h2v-1.18a3.02 3.02 0 0 0 1.773-1.672 3.01 3.01 0 0 0-.652-3.27 3 3 0 0 0-2.133-.875M8 10.98c-.55 0-1 .449-1 1s.45 1 1 1 1-.45 1-1c0-.551-.45-1-1-1"/></svg>