<svg xmlns="http://www.w3.org/2000/svg" width="16" height="16"><path fill="#222" d="M4.984.001c-1.644 0-3 1.355-3 3v9c0 1.645 1.356 3 3 3h3.72a4.5 4.5 0 0 1-1.419-2h-2.3c-.572 0-1-.429-1-1v-9c0-.571.428-1 1-1h4v1.5q0 1.5 1.5 1.5h1.5v2.023a4.5 4.5 0 0 1 2 .713V4.501a1 1 0 0 0-.294-.707l-3.5-3.5a1 1 0 0 0-.707-.293zM5.016 3v1h3V3zm0 2v1h3V5zm0 2v1H8.7a4.5 4.5 0 0 1 2.315-.965V7zm6.5 1a3.515 3.515 0 0 0-3.5 3.5c0 1.921 1.579 3.5 3.5 3.5.6 0 1.164-.156 1.66-.426h.002l1.13 1.133a1 1 0 0 0 1.415-1.414l-1.133-1.13v-.003c.27-.495.426-1.06.426-1.66 0-1.921-1.58-3.5-3.5-3.5m-6.5 1v1h2.267a4.5 4.5 0 0 1 .496-1zm6.5 1c.84 0 1.5.66 1.5 1.5 0 .406-.155.768-.409 1.035l-.03.026q-.015.015-.026.03c-.268.254-.63.41-1.035.41-.84 0-1.5-.66-1.5-1.5s.66-1.5 1.5-1.5m-6.5 1v1H7.05a5 5 0 0 1-.035-.5 5 5 0 0 1 .035-.5z"/></svg>