<svg xmlns="http://www.w3.org/2000/svg" width="16" height="16" viewBox="0 0 16 16"><path fill="#222" d="M5 0c-.55 0-1 .45-1 1 0 .691.387 1.285.8 1.605C4.298 3.277 4 4.105 4 5H3V4H1v1c0 .832.563 1.523 1.05 1.77.493.246.95.23.95.23h1v1H1v2h3v1H3s-.457-.016-.95.23C1.563 11.477 1 12.168 1 13v3h2v-3h1.129c.45 1.719 2.016 3 3.871 3 1.852 0 3.422-1.281 3.871-3H13v3h2v-3c0-.832-.562-1.523-1.055-1.77C13.457 10.984 13 11 13 11h-1v-1h3V8h-3V7h1s.457.016.945-.23C14.437 6.523 15 5.832 15 5V4h-2v1h-1c0-.895-.297-1.723-.8-2.395.41-.32.8-.914.8-1.605 0-.55-.45-1-1-1s-1 .45-1 1c-.238 0-.465.086-.648.238a3.98 3.98 0 0 0-2.707 0A1 1 0 0 0 6 1c0-.55-.45-1-1-1m2.969 5.031h.062A.97.97 0 0 1 9 6v3.063a.97.97 0 0 1-.969.968H7.97A.966.966 0 0 1 7 9.062V6c0-.535.43-.969.969-.969m0 6h.062A.97.97 0 0 1 9 12v.063a.97.97 0 0 1-.969.968H7.97a.966.966 0 0 1-.97-.969V12c0-.535.43-.969.969-.969m0 0"/></svg>