<svg xmlns="http://www.w3.org/2000/svg" width="16" height="16" viewBox="0 0 16 16"><path d="M10.086 0c.547.02 1.086.184 1.559.492A2.99 2.99 0 0 1 12.98 3.34a3 3 0 0 1-1.957 2.46.995.995 0 0 1-1.278-.597.996.996 0 0 1 .598-1.281.986.986 0 0 0 .207-1.758 1.01 1.01 0 0 0-1.05-.031 1 1 0 0 1-1.368-.367c-.274-.48-.11-1.09.367-1.368A3 3 0 0 1 10.086 0M5 2c1.64 0 3 1.352 3 2.992S6.64 7.981 5 7.981 2 6.633 2 4.992 3.36 2 5 2m0 2c-.566 0-1 .438-1 .992s.434.988 1 .988 1-.433 1-.988S5.567 4 5 4m6.2 3c2.085 0 3.8 1.707 3.8 3.79V12c0 .55-.45 1-1 1s-1-.45-1-1v-1.21A1.78 1.78 0 0 0 11.2 9H10c-.55 0-1-.45-1-1s.45-1 1-1zm-5 2c2.085 0 3.8 1.707 3.8 3.79V14c0 .55-.45 1-1 1s-1-.45-1-1v-1.21A1.78 1.78 0 0 0 6.2 11H3.8A1.78 1.78 0 0 0 2 12.79V14c0 .55-.45 1-1 1s-1-.45-1-1v-1.21C0 10.706 1.715 9 3.8 9z"/></svg>