<svg xmlns="http://www.w3.org/2000/svg" width="16" height="16" viewBox="0 0 16 16"><g fill="#222"><path d="M8.023 4.996a1 1 0 0 0-1 1v3c0 .555.446 1 1 1h2a1 1 0 1 0 0-2h-1v-2c0-.55-.449-1-1-1m0 0"/><path d="M8.02-.004c-4.141 0-7.61 3.18-7.97 7.3-.359 4.126 2.505 7.86 6.579 8.579a8.01 8.01 0 0 0 9.117-5.809l-1.933-.52a5.98 5.98 0 0 1-6.836 4.356 5.98 5.98 0 0 1-4.934-6.43A5.986 5.986 0 0 1 8.02 1.997zm0 0"/><path d="m10.09.27-.52 1.933c1.02.27 1.946.805 2.692 1.55l1.414-1.413A8 8 0 0 0 10.09.27m4.855 3.726-1.73 1c.527.914.805 1.945.805 3h2a8 8 0 0 0-1.075-4m0 0"/></g></svg>