<svg xmlns="http://www.w3.org/2000/svg" width="16" height="16" viewBox="0 0 16 16"><path fill="#222" d="M7.89 0C3.517 0 0 3.625 0 8a8 8 0 1 0 8-8zM5.927 2.46a.62.62 0 0 1 .523.392.417.417 0 0 1-.387.437.41.41 0 0 0-.41.41v1.184c0 .441-.359.8-.8.8a.8.8 0 0 0-.797.797.8.8 0 0 1-.797.797.795.795 0 0 0-.797.797c0 .442.355.797.797.797.441 0 .8.356.797.8v2.856a6 6 0 0 1-2.02-4.476 6 6 0 0 1 1.57-4.028l.051-.05q.354-.377.766-.684l.039-.031c.45-.332.941-.602 1.465-.797m4.531.435h.59c.484.28.922.628 1.305 1.035a.4.4 0 0 1-.106.011h-1.789a.523.523 0 0 1 0-1.046m-2.05.87c.32 0 .577.258.577.583v.632a.58.58 0 1 1-1.16 0v-.632a.58.58 0 0 1 .582-.582m2.288.672h2.086a5.95 5.95 0 0 1 1.215 3.477.7.7 0 0 1-.441.168l-1.13-.008a1.22 1.22 0 0 0-1.218 1.219v1.348a.793.793 0 0 1-.797.797.796.796 0 0 1-.8-.797V9.77a.59.59 0 0 0-.395-.73.73.73 0 0 1-.73-.727V7.074a.857.857 0 0 1 .788-.918.71.71 0 0 0 .711-.71v-.301a.72.72 0 0 1 .711-.711zm0 0"/></svg>