<svg xmlns="http://www.w3.org/2000/svg" width="16" height="16" viewBox="0 0 16 16"><path fill="#222" d="M3 2C1.336 2 0 3.34 0 5v8c0 1.66 1.336 3 3 3h8c1.66 0 3-1.34 3-3V9c0-.55-.45-1-1-1s-1 .45-1 1v4c0 .555-.445 1-1 1H3c-.555 0-1-.445-1-1V5c0-.555.445-1 1-1h4c.55 0 1-.45 1-1s-.45-1-1-1zm7-2c-.55 0-1 .45-1 1s.45 1 1 1h2.582L7.293 7.29a1 1 0 1 0 1.414 1.417L14 3.414V6c0 .55.45 1 1 1s1-.45 1-1V1a1 1 0 0 0-.035-.258A1 1 0 0 0 15.863.5a1 1 0 0 0-.156-.207L15.66.258a.9.9 0 0 0-.297-.176.7.7 0 0 0-.156-.05c-.039-.012-.082-.016-.121-.02C15.055.004 15.027.004 15 0zm0 0"/></svg>