<svg xmlns="http://www.w3.org/2000/svg" width="16" height="16" viewBox="0 0 16 16"><path fill="#222" d="M15.204 12.013a.645.645 0 0 1-.646.646h-5.17a.645.645 0 0 1-.646-.646c0-.358.289-.646.647-.646h5.17c.357 0 .645.288.645.646m-3.23-3.231c.357 0 .646.288.646.646v5.17a.645.645 0 0 1-.647.646.645.645 0 0 1-.646-.646v-5.17c0-.358.288-.646.646-.646m3.494-6.022-.67-.387-3.863-2.23a1.064 1.064 0 0 0-1.596.921V6.3a1.064 1.064 0 0 0 1.596.92l.671-.387 3.862-2.23a1.064 1.064 0 0 0 0-1.842M2.097 8.63h3.117c.987 0 1.782.794 1.782 1.78v3.118c0 .987-.795 1.782-1.782 1.782H2.097a1.78 1.78 0 0 1-1.782-1.782v-3.117c0-.987.795-1.782 1.782-1.782m5.269-4.947a3.683 3.683 0 1 1-7.366 0 3.683 3.683 0 0 1 7.366 0"/></svg>