<svg xmlns="http://www.w3.org/2000/svg" width="16" height="16" viewBox="0 0 16 16"><path fill="#222" d="M11.406 1.965a3.75 3.75 0 0 0-2.64.984l-.754.676-.758-.676a3.74 3.74 0 0 0-3.676-.77c-1.277.419-2.23 1.489-2.5 2.805s.184 2.676 1.188 3.567l5.746 5.117 5.742-5.117a3.75 3.75 0 0 0 1.082-4.098 3.75 3.75 0 0 0-3.43-2.488M4.891 3.918c.297.02.609.14 1.027.52l.004.003 2.09 1.864 2.097-1.871.012-.012a1.75 1.75 0 0 1 1.23-.457c.891.023 1.364.5 1.602 1.16.235.656.168 1.328-.504 1.91l-.012.012-4.425 3.945-4.418-3.937-.004-.004c-.563-.496-.653-.86-.656-1.25 0-.39.18-.856.507-1.227.332-.367.774-.601 1.16-.644q.145-.018.29-.012m0 0"/></svg>