<svg xmlns="http://www.w3.org/2000/svg" width="16" height="16" viewBox="0 0 16 16"><g fill="#222"><path fill-opacity=".349" fill-rule="evenodd" d="M11.012 1a1 1 0 0 0-.711.281 1.01 1.01 0 0 0-.02 1.418L11.551 4H7c-.55 0-1 .45-1 1s.45 1 1 1h4.55l-1.269 1.3a1.01 1.01 0 0 0 .02 1.419 1.003 1.003 0 0 0 1.414-.02l2.918-3a.997.997 0 0 0 0-1.394l-2.918-3A1 1 0 0 0 11.012 1M4.984 7a1.02 1.02 0 0 0-.703.3l-2.918 3a1.01 1.01 0 0 0 0 1.4l2.918 3a1 1 0 0 0 1.414.015.996.996 0 0 0 .02-1.414L4.449 12H9c.55 0 1-.45 1-1s-.45-1-1-1H4.45l1.265-1.3a1 1 0 0 0-.73-1.7m0 0"/><path d="M11 11h1.375l1.125 1.094L14.594 11H16v1.469l-1.094 1.062L16 14.594V16h-1.437L13.5 14.938 12.438 16H11v-1.406l1.063-1.063L11 12.47zm0 0"/></g></svg>