<?xml version="1.0" encoding="UTF-8" standalone="no"?>
<svg
   height="16"
   viewBox="0 0 16 16"
   width="16"
   version="1.1"
   id="svg2"
   xml:space="preserve"
   xmlns="http://www.w3.org/2000/svg"
   xmlns:svg="http://www.w3.org/2000/svg"><defs
     id="defs2" /><g
     fill="#222222"
     id="g2"><g
       id="g4"><path
         id="path1"
         d="M 3.2054687,0.97600139 V 3.9486576 l 2.0585938,2.0585938 c -0.00125,-0.010532 -0.0027,-0.020645 -0.00391,-0.03125 h 1.5273437 l 0.515625,-2 H 5.2249962 V 0.97600139 Z M 0.225,3.9760014 v 2 h 2.8671875 l -2,-2 z M 3.1644531,6.048267 C 3.0706831,6.7700861 2.8753275,7.3216424 2.5804687,7.8470952 2.1585937,8.6010012 1.4789067,9.3353769 0.51796875,10.296313 l 1.41406255,1.414063 c 0.9218749,-0.921875 1.7031252,-1.7265616 2.2851562,-2.6953121 0.378906,0.632813 0.839844,1.1953111 1.375,1.7656251 L 6.1097656,8.9935795 Z" /><path
         id="path2"
         d="M 8.44375,1.9760014 7.0082031,7.7787358 8.646875,9.4174076 10.00625,3.9760014 h 0.4375 l 1.5,6 H 9.2054687 l 1.9999993,1.9999996 h 1.238282 l 0.435546,1.673828 1.326172,1.326172 H 15.225 L 12.00625,1.9760014 Z M 6.5824219,9.4935795 5.225,14.976001 h 2 l 0.78125,-3 h 1.0585937 z" /><rect
         style="display:inline;fill:#222222;fill-opacity:1;stroke-width:0.868175"
         id="rect2"
         width="1.513"
         height="19.839041"
         x="-0.98769802"
         y="-21.392424"
         transform="rotate(135)" /></g></g></svg>
