<svg xmlns="http://www.w3.org/2000/svg" width="16" height="16" viewBox="0 0 16 16"><path d="M8-.012c-.55 0-1 .45-1 1v14c0 .551.45 1 1 1s1-.449 1-1v-14c0-.55-.45-1-1-1m0 0"/><path d="M4 13.988c-.55 0-1 .45-1 1s.45 1 1 1h8c.55 0 1-.449 1-1s-.45-1-1-1zm4.035-14a1 1 0 0 0-.902.61c-.238.566-.875.933-1.883 1.152-1.008.223-2.254.238-3.25.238-.55 0-1 .45-1 1s.45 1 1 1c1.004 0 2.367.004 3.676-.281.875-.191 1.695-.648 2.383-1.277.687.632 1.496 1.093 2.355 1.285C11.688 4 13 3.988 14 3.988c.55 0 1-.449 1-1s-.45-1-1-1c-1 0-2.187-.008-3.152-.226-.961-.215-1.59-.57-1.891-1.203a1 1 0 0 0-.922-.57m0 0"/><path d="M3 3.988a.5.5 0 0 0-.48.364l-2 7a.5.5 0 0 0 .261.586c1.395.68 2.934.765 4.446-.004a.5.5 0 0 0 .253-.582l-2-7A.5.5 0 0 0 3 3.988m0 2.32 1.379 4.833c-.95.379-1.852.355-2.762 0zm10-2.32a.5.5 0 0 0-.48.364l-2 7a.5.5 0 0 0 .261.586c1.395.68 2.934.765 4.446-.004a.5.5 0 0 0 .253-.582l-2-7a.5.5 0 0 0-.48-.364m0 2.32 1.379 4.833c-.95.379-1.852.355-2.762 0zm0 0"/><path d="M1.438 10.59a1 1 0 1 0-.875 1.797c1.503.73 3.253.828 4.89-.008a1 1 0 0 0 .438-1.344.995.995 0 0 0-1.348-.437c-1.121.574-2.027.515-3.105-.008m10 0a1 1 0 1 0-.876 1.797c1.504.73 3.254.828 4.891-.008a1 1 0 0 0 .438-1.344.995.995 0 0 0-1.348-.437c-1.121.574-2.027.515-3.106-.008m0 0"/></svg>