<svg xmlns="http://www.w3.org/2000/svg" width="16" height="16"><path d="M8 .285a2.3 2.3 0 0 0-1.166.313L2.166 3.285l-.002.002a2.35 2.35 0 0 0-1.162 2.026v5.375c0 .832.442 1.606 1.162 2.025l.002.002 4.668 2.687A2.33 2.33 0 0 0 9.17 15.4l4.664-2.685.002-.002a2.35 2.35 0 0 0 1.162-2.025V5.313c0-.832-.442-1.607-1.162-2.026l-.002-.002L9.17.6A2.3 2.3 0 0 0 8 .285m0 1.998q.085 0 .164.045l.002.002 3.815 2.197L8 6.847l-3.98-2.32L7.834 2.33l.002-.002A.3.3 0 0 1 8 2.283m-4.998 3.97L7 8.585v4.605l-3.83-2.205a.34.34 0 0 1-.168-.297zm9.996 0v4.432a.34.34 0 0 1-.168.3L9 13.188V8.584z" color="#000" style="-inkscape-stroke:none"/></svg>