<svg xmlns="http://www.w3.org/2000/svg" width="16" height="16"><path fill="#222" d="M8.031.996Q7.984.995 7.93 1a1 1 0 0 0-.918.992L7.004 3H5.016l.02-.98a1 1 0 0 0-.313-.747.98.98 0 0 0-.762-.27.995.995 0 0 0-.926.981l-.023 1.278A3.3 3.3 0 0 0 1 6.309v4.386c0 1.375.831 2.547 2.02 3.047V15a1 1 0 1 0 2 0v-1H7v1c0 .55.45 1 1 1s1-.45 1-1v-1h2v1c0 .55.45 1 1 1s1-.45 1-1v-1.266c1.18-.507 2-1.675 2-3.039V6.31c0-1.368-.82-2.533-1.996-3.037l.012-1.263A1.007 1.007 0 0 0 11.93 1a.996.996 0 0 0-.914.992L11.004 3H9.008l.008-.992c.004-.551-.435-1-.98-1.012zM4.308 5h7.387C12.417 5 13 5.582 13 6.309V10c0 .484-.406 1-1 1H4.02C3.467 11 3 10.547 3 10V6.31C3 5.582 3.582 5 4.309 5"/></svg>