<svg xmlns="http://www.w3.org/2000/svg" width="16" height="16" viewBox="0 0 16 16"><g fill="#222"><path d="M0 3.992c0-1.644 1.355-3 3-3h8c1.645 0 3 1.356 3 3v3h-2v-3c0-.562-.437-1-1-1H3c-.562 0-1 .438-1 1v5c0 .563.438 1 1 1h3v2H3c-1.645 0-3-1.355-3-3zm0 0"/><path fill-opacity=".349" d="M10 8.992c-1.09 0-2 .91-2 2v2c0 1.09.91 2 2 2h4c1.09 0 2-.91 2-2v-2c0-1.09-.91-2-2-2zm0 2h4v2h-4zm0 0"/><path d="M3 4v3.5a.499.499 0 1 0 1 0V5.707l3.145 3.145a.5.5 0 1 0 .707-.707L4.707 5H6.5a.499.499 0 1 0 0-1zm0 0"/></g></svg>