<svg xmlns="http://www.w3.org/2000/svg" width="16" height="16"><path d="M4.984.002c-1.644 0-3 1.355-3 3v9c0 1.645 1.356 3 3 3H7v-2H4.984c-.57 0-1-.429-1-1v-9c0-.571.43-1 1-1h4v1.5q0 1.5 1.5 1.5h1.5V6h2V4.502a1 1 0 0 0-.293-.707l-3.5-3.5a1 1 0 0 0-.707-.293zM5.016 3v1h3V3zm0 2v1h3V5zM12 6.994A3 3 0 0 0 9 9.99V11c-.556.017-1 .465-1 1.025v2.97c0 .522.503 1 1 1h6c.515 0 1-.46 1-1v.173a1 1 0 0 0 0-.338v-2.805c0-.56-.444-1.008-1-1.025V9.99a3 3 0 0 0-3-2.996M5.016 7v1H8V7zM12 8.637a1.46 1.46 0 0 1 1.461 1.46v.897h-2.922v-.9A1.46 1.46 0 0 1 12 8.637M5.016 9v1H7V9zm0 2v1H7v-1z"/></svg>