<svg xmlns="http://www.w3.org/2000/svg" width="16" height="16" viewBox="0 0 16 16"><g fill="#222"><path d="M12 1c1.664 0 3 1.34 3 3v6c0 1.66-1.336 3-3 3H4c-1.66 0-3-1.34-3-3V4c0-1.66 1.34-3 3-3zm0 2H4c-.555 0-1 .445-1 1v6c0 .555.445 1 1 1h8c.555 0 1-.445 1-1V4c0-.555-.445-1-1-1M8 14c-5 0-5 1-5 1 0 1 1 1 1 1h8c1 0 1-1 1-1s0-1-5-1m0 0"/><path d="M6 4c-.55 0-1 .45-1 1s.45 1 1 1 1-.45 1-1-.45-1-1-1m4 0c-.55 0-1 .45-1 1s.45 1 1 1 1-.45 1-1-.45-1-1-1M8 7a4 4 0 0 0-3.465 2 .503.503 0 0 0 .184.684.503.503 0 0 0 .683-.184C5.938 8.57 6.926 8 8 8s2.063.57 2.598 1.5c.136.238.445.32.683.184A.503.503 0 0 0 11.465 9 4 4 0 0 0 8 7m0 0"/></g></svg>