<svg xmlns="http://www.w3.org/2000/svg" width="16" height="16" viewBox="0 0 16 16"><path d="M0 15c0 .55.45 1 1 1h11c1.012 0 1.781-.812 1.98-1.8l1-4.97q.019-.099.02-.199V6.97c0-1.074-.848-2-2-2H9.598l.996 1.113.398-3.469-.027.145C11.34 1.363 10.3 0 9 0H7a1 1 0 0 0-.918.602l-3.039 7L3.957 7H1c-.55 0-1 .45-1 1zm3.957-6a1 1 0 0 0 .918-.602l3.043-7L7 2h2c-.04 0-.055-.008-.055-.008l.004.004.008.004.004.004.008.004q.006.007.011.008c.047.047.094.078.055.226a.6.6 0 0 0-.027.145l-.403 3.468c-.03.282.06.567.247.778.191.215.46.336.746.336H13c.031 0 .012 0 .004-.008-.008-.004-.008-.008-.004 0v2.07l.02-.199-1 4.973a.43.43 0 0 1-.094.207l-.004.004s-.004 0-.004.004q.002.001.004-.004h.004s0-.004.004-.004A.2.2 0 0 1 12 14H1l1 1V8L1 9zm0 0"/></svg>