<svg xmlns="http://www.w3.org/2000/svg" width="16" height="16" viewBox="0 0 16 16"><path fill="#222" fill-rule="evenodd" d="M5.21 1.27a3.69 3.69 0 0 1 5.575 0 3.7 3.7 0 0 1 2.871 1.074A3.68 3.68 0 0 1 14.73 5.21C15.54 5.914 16 6.93 16 8s-.465 2.086-1.27 2.79a3.68 3.68 0 0 1-1.074 2.866 3.7 3.7 0 0 1-2.87 1.074C10.085 15.54 9.07 16 8 16s-2.086-.46-2.79-1.27a3.68 3.68 0 0 1-2.866-1.074A3.68 3.68 0 0 1 1.27 10.79 3.7 3.7 0 0 1 0 8c0-1.113.492-2.11 1.27-2.79a3.68 3.68 0 0 1 1.074-2.866A3.68 3.68 0 0 1 5.21 1.27m5.75 5.242a.613.613 0 0 0-.437-.98.61.61 0 0 0-.562.265L7.305 9.512 5.973 8.18a.616.616 0 0 0-.871.87l1.847 1.845a.61.61 0 0 0 .485.18.63.63 0 0 0 .453-.255zm0 0"/></svg>