<svg xmlns="http://www.w3.org/2000/svg" viewBox="0 0 102.293 30.745"><g transform="translate(-50.535 -124.883)"><path d="m1800.524 1173.89-7.048 47.22A8.618 8.618 49.244 0 0 1802 1231h2a10.87 10.87 147.222 0 0 9.897-6.373l2.965-6.523A15.53 15.53 147.222 0 1 1831 1209h35a15.53 15.53 32.778 0 1 14.138 9.104l2.965 6.523A10.87 10.87 32.778 0 0 1893 1231h2a8.618 8.618 130.756 0 0 8.524-9.89l-7.048-47.22A11.6 11.6 40.756 0 0 1885 1164h-73a11.6 11.6 139.244 0 0-11.476 9.89" style="fill:none;stroke:currentColor;stroke-width:6;stroke-linecap:round;stroke-linejoin:round;stroke-miterlimit:2" transform="translate(-423.17 -170.894)scale(.26458)"/><path d="M55.99 142.902h5.292m-2.646-2.646v5.291m53.182-1.322h5.291m-2.646-2.646v5.291" style="fill:#c5eee1;fill-opacity:1;stroke:currentColor;stroke-width:1.5875;stroke-linecap:round;stroke-linejoin:round;stroke-miterlimit:2"/><circle cx="69.881" cy="142.902" r="1.191" style="fill:currentColor;fill-opacity:1;stroke:none;stroke-width:1.5875;stroke-linecap:round;stroke-linejoin:round;stroke-miterlimit:2"/><circle cx="74.644" cy="142.902" r="1.191" style="fill:currentColor;fill-opacity:1;stroke:none;stroke-width:1.5875;stroke-linecap:round;stroke-linejoin:round;stroke-miterlimit:2"/><g style="fill:currentColor;fill-opacity:1" transform="rotate(90 368.236 15.97)scale(.26458)"><circle cx="1862.5" cy="1179" r="4.5" style="opacity:1;fill:currentColor;fill-opacity:1;stroke-width:5.99999;stroke-linecap:round;stroke-linejoin:round;stroke-miterlimit:2"/><circle cx="1880.5" cy="1179" r="4.5" style="opacity:1;fill:currentColor;fill-opacity:1;stroke-width:5.99999;stroke-linecap:round;stroke-linejoin:round;stroke-miterlimit:2"/></g><rect width="42.863" height="19.05" x="109.172" y="135.758" rx="2.646" ry="2.646" style="fill:none;fill-opacity:1;stroke:currentColor;stroke-width:1.5875;stroke-linecap:round;stroke-linejoin:round;stroke-miterlimit:2;stroke-opacity:1"/><rect width="21.696" height="14.288" x="119.755" y="138.139" rx="1.587" ry="1.587" style="fill:none;fill-opacity:1;stroke:currentColor;stroke-width:1.5875;stroke-linecap:round;stroke-linejoin:round;stroke-miterlimit:2;stroke-opacity:1"/><circle cx="144.494" cy="143.96" r="1.191" style="fill:currentColor;fill-opacity:1;stroke:none;stroke-width:1.5875;stroke-linecap:round;stroke-linejoin:round;stroke-miterlimit:2"/><circle cx="149.256" cy="143.96" r="1.191" style="fill:currentColor;fill-opacity:1;stroke:none;stroke-width:1.5875;stroke-linecap:round;stroke-linejoin:round;stroke-miterlimit:2"/><g style="fill:currentColor;fill-opacity:1" transform="rotate(90 405.013 53.805)scale(.26458)"><circle cx="1862.5" cy="1179" r="4.5" style="opacity:1;fill:currentColor;fill-opacity:1;stroke-width:5.99999;stroke-linecap:round;stroke-linejoin:round;stroke-miterlimit:2"/><circle cx="1880.5" cy="1179" r="4.5" style="opacity:1;fill:currentColor;fill-opacity:1;stroke-width:5.99999;stroke-linecap:round;stroke-linejoin:round;stroke-miterlimit:2"/></g><path d="M1793 1131.304V1228a10 10 45 0 0 10 10h50.13a24.87 24.87 135 0 0 24.87-24.87v-81.826a10 10 45 0 0-10-10h-65a10 10 135 0 0-10 10" style="fill:none;stroke:currentColor;stroke-width:6.57902;stroke-linecap:round;stroke-linejoin:round;stroke-miterlimit:2" transform="matrix(.23346 0 0 .2494 -333.492 -153.952)"/><path d="M88.27 146.077h5.291m-2.645-2.647v5.292" style="fill:#c5eee1;fill-opacity:1;stroke:currentColor;stroke-width:1.5875;stroke-linecap:round;stroke-linejoin:round;stroke-miterlimit:2"/><circle cx="98.059" cy="147.135" r="1.191" style="fill:currentColor;fill-opacity:1;stroke:none;stroke-width:1.5875;stroke-linecap:round;stroke-linejoin:round;stroke-miterlimit:2"/><circle cx="144.754" cy="-100.97" r="1.191" style="fill:currentColor;fill-opacity:1;stroke-width:1.5875;stroke-linecap:round;stroke-linejoin:round;stroke-miterlimit:2" transform="rotate(90)"/><rect width="13.494" height="10.054" x="88.27" y="128.879" rx=".794" ry=".794" style="fill:none;fill-opacity:1;stroke:currentColor;stroke-width:1.5875;stroke-linecap:round;stroke-linejoin:round;stroke-miterlimit:2;stroke-opacity:1"/></g></svg>