<svg width="354" height="257" viewBox="0 0 354 257" fill="none" xmlns="http://www.w3.org/2000/svg">
<path d="M109.88 49.661V49.8873C109.88 58.6024 116.945 65.6674 125.66 65.6674H133.566C137.991 65.6674 141.587 69.2393 141.615 73.6642C141.615 78.0448 138.05 81.5885 133.67 81.5607H31.6735C22.9583 81.5607 15.8933 88.6258 15.8933 97.3409V97.5672C15.8933 106.282 22.9583 113.347 31.6735 113.347H39.4104C43.7825 113.347 47.3267 116.892 47.3267 121.264V121.324C47.3267 125.696 43.7825 129.241 39.4104 129.241H15.6422C7.00325 129.241 0 136.244 0 144.883V145.385C-6.99999e-06 154.024 7.00325 161.027 15.6422 161.027H39.4104C43.7825 161.027 47.3267 164.571 47.3267 168.944V169.004C47.3267 173.376 43.7825 176.921 39.4104 176.921H31.6735C22.9583 176.921 15.8933 183.986 15.8933 192.701V192.927C15.8933 201.642 22.9583 208.707 31.6735 208.707H141.187C145.548 208.707 149.084 212.243 149.084 216.604V216.703C149.084 221.065 145.548 224.6 141.187 224.6C132.573 224.702 125.672 231.767 125.774 240.381V240.607C125.774 249.322 132.839 256.387 141.554 256.387H270.308C279.023 256.387 286.089 249.322 286.089 240.607V240.381C286.089 231.665 279.023 224.6 270.308 224.6C265.951 224.596 262.421 221.061 262.425 216.703V216.604C262.425 212.243 265.961 208.707 270.322 208.707H317.988C326.703 208.707 333.768 201.642 333.768 192.927V192.701C333.768 183.986 326.703 176.92 317.988 176.921H309.545C305.173 176.921 301.629 173.376 301.629 169.004V168.944C301.629 164.572 305.173 161.027 309.545 161.027H333.882C342.597 161.027 349.662 153.962 349.662 145.247V145.021C349.662 136.306 342.597 129.241 333.882 129.241H309.545C305.173 129.241 301.629 125.696 301.629 121.324V121.264C301.629 116.892 305.173 113.347 309.545 113.347H317.988C326.703 113.347 333.768 106.282 333.768 97.5672V97.3409C333.768 88.6257 326.703 81.5607 317.988 81.5607H262.375C257.917 81.5608 254.302 77.9461 254.302 73.4872C254.372 69.0983 257.987 65.5973 262.375 65.6674H270.308C279.023 65.6675 286.089 58.6024 286.089 49.8873V49.661C286.089 40.9459 279.023 33.8808 270.308 33.8809H125.66C116.945 33.8809 109.88 40.9459 109.88 49.661Z" fill="#5E5A64"/>
<path d="M295.088 187.245C282.174 187.245 271.705 176.777 271.705 163.862C271.705 150.948 282.174 140.479 295.088 140.479C308.002 140.479 318.471 150.948 318.471 163.862C318.471 176.777 308.002 187.245 295.088 187.245Z" fill="url(#paint0_radial_146_3)"/>
<path d="M295.087 175.303C288.769 175.303 283.647 170.181 283.647 163.862C283.647 157.544 288.769 152.422 295.087 152.422C301.405 152.422 306.527 157.544 306.527 163.862C306.527 170.181 301.405 175.303 295.087 175.303Z" fill="#F6F5F4"/>
<path d="M295.133 140.479C301.327 140.491 307.263 142.96 311.638 147.344C316.013 151.728 318.471 157.669 318.471 163.862C318.47 165.433 318.311 167 317.996 168.539H272.175C271.862 167 271.704 165.433 271.705 163.862C271.705 157.661 274.168 151.713 278.553 147.328C282.939 142.943 288.886 140.479 295.088 140.479C295.103 140.479 295.118 140.479 295.133 140.479Z" fill="black" fill-opacity="0.20574"/>
<path d="M129.067 134.095H111.53C108.292 134.095 105.684 136.702 105.684 139.94C105.684 143.179 105.824 159.123 105.824 159.123H129.067V134.095Z" fill="#C2C2C2"/>
<path d="M120.925 140.566C116.374 140.566 112.684 136.876 112.684 132.325C112.684 127.773 116.374 124.084 120.925 124.084C125.476 124.084 129.166 127.773 129.166 132.325C129.166 136.876 125.476 140.566 120.925 140.566Z" fill="url(#paint1_radial_146_3)"/>
<path d="M120.925 123.969C116.374 123.969 112.684 120.279 112.684 115.727C112.684 111.176 116.374 107.486 120.925 107.486C125.476 107.486 129.166 111.176 129.166 115.727C129.166 120.279 125.476 123.969 120.925 123.969Z" fill="url(#paint2_radial_146_3)"/>
<path d="M119.714 117.096H189.863V163.862H119.714V117.096Z" fill="#0F402A"/>
<path d="M180.511 152.171H198.048C201.286 152.171 203.894 154.778 203.894 158.017C203.894 161.255 201.286 163.862 198.048 163.862H180.511V152.171Z" fill="#9A9996"/>
<path d="M202.123 0.181152H341.285C348.056 0.181152 353.545 5.66989 353.545 12.4406V151.603C353.545 158.374 348.056 163.862 341.285 163.862H202.123C195.352 163.862 189.864 158.374 189.864 151.603V12.4406C189.864 5.66989 195.352 0.181152 202.123 0.181152Z" fill="#C2C2C2"/>
<path d="M353.545 146.928V151.605C353.545 158.396 348.079 163.862 341.287 163.862H202.121C195.33 163.862 189.864 158.396 189.864 151.605V146.928C189.864 153.72 195.33 159.186 202.121 159.186H341.287C348.079 159.186 353.545 153.72 353.545 146.928Z" fill="#C0BFBC"/>
<path d="M189.864 0.181152H353.545V23.5642H189.864V0.181152Z" fill="#DEDDDA"/>
<path d="M154.604 187.245C141.69 187.245 131.221 176.777 131.221 163.862C131.221 150.948 141.69 140.479 154.604 140.479C167.518 140.479 177.987 150.948 177.987 163.862C177.987 176.777 167.518 187.245 154.604 187.245Z" fill="url(#paint3_radial_146_3)"/>
<path d="M154.789 46.9473H189.863V70.3303H154.789V46.9473Z" fill="#2EC27E"/>
<path d="M189.863 117.096V152.171H180.4C178.153 147.212 174.525 143.006 169.95 140.056C165.374 137.107 160.045 135.538 154.601 135.538C149.158 135.539 143.831 137.108 139.256 140.058C134.681 143.007 131.054 147.213 128.807 152.171H119.714V117.096H189.863Z" fill="#2EC27E"/>
<path d="M154.876 128.053C160.703 128.123 166.339 130.432 170.875 134.61C175.411 138.787 178.582 144.587 179.876 151.075C177.512 146.402 173.898 142.475 169.436 139.733C164.974 136.99 159.84 135.538 154.602 135.538C149.364 135.54 144.229 136.994 139.768 139.74C135.307 142.485 131.695 146.413 129.333 151.089C130.635 144.547 133.845 138.705 138.436 134.52C143.027 130.334 148.727 128.054 154.602 128.053C154.694 128.052 154.785 128.052 154.876 128.053Z" fill="url(#paint4_radial_146_3)"/>
<path d="M154.789 45.9473L119.714 92.7134V116.096L154.789 69.3303V45.9473Z" fill="#62A0EA"/>
<path d="M189.863 70.3303V117.096H119.714L154.789 70.3303H189.863Z" fill="#3584E4"/>
<path d="M155.285 175.303C148.967 175.303 143.845 170.181 143.845 163.862C143.845 157.544 148.967 152.422 155.285 152.422C161.604 152.422 166.726 157.544 166.726 163.862C166.726 170.181 161.604 175.303 155.285 175.303Z" fill="#F6F5F4"/>
<path d="M268.305 68.7308C268.305 73.9667 266.225 78.9882 262.523 82.6905C258.821 86.3929 253.799 88.4728 248.563 88.4728C243.327 88.4728 238.306 86.3929 234.604 82.6905C230.901 78.9882 228.821 73.9667 228.821 68.7308C228.821 66.1382 229.332 63.5711 230.324 61.1759C231.316 58.7806 232.77 56.6043 234.604 54.7711C236.437 52.9379 238.613 51.4837 241.008 50.4915C243.404 49.4994 245.971 48.9888 248.563 48.9888C253.799 48.9888 258.821 51.0687 262.523 54.7711C266.225 58.4734 268.305 63.4949 268.305 68.7308Z" fill="#77767B"/>
<path d="M240.061 95.2443H256.773C262.063 95.2443 266.322 99.5033 266.322 104.794V121.505C266.322 126.796 262.063 131.055 256.773 131.055H240.061C234.771 131.055 230.512 126.796 230.512 121.505V104.794C230.512 99.5033 234.771 95.2443 240.061 95.2443Z" fill="#77767B"/>
<path d="M311.736 63.7844L308.138 61.7075L287.436 49.755C286.569 49.2545 285.586 48.9911 284.585 48.9911C283.584 48.9911 282.601 49.2545 281.734 49.755C280.867 50.2554 280.148 50.9752 279.647 51.8419C279.147 52.7087 278.883 53.6919 278.883 54.6928L278.883 58.8466L278.883 82.7517C278.883 83.7526 279.147 84.7358 279.647 85.6026C280.148 86.4694 280.867 87.1891 281.734 87.6896C282.601 88.19 283.584 88.4535 284.585 88.4535C285.586 88.4535 286.569 88.19 287.436 87.6896L291.033 85.6126L311.736 73.6601C312.602 73.1597 313.322 72.4399 313.823 71.5731C314.323 70.7064 314.587 69.7231 314.587 68.7223C314.587 67.7214 314.323 66.7382 313.823 65.8714C313.322 65.0046 312.602 64.2849 311.736 63.7844Z" fill="#77767B"/>
<path d="M310.322 113.381C310.322 115.3 308.777 116.845 306.859 116.845H279.147C277.228 116.845 275.684 115.3 275.684 113.381C275.684 111.462 277.228 109.917 279.147 109.917H306.859C308.777 109.917 310.322 111.462 310.322 113.381ZM293.003 96.0615C294.922 96.0615 296.467 97.6064 296.467 99.5254V127.236C296.467 129.155 294.922 130.7 293.003 130.7C291.084 130.7 289.539 129.155 289.539 127.236V99.5254C289.539 97.6064 291.084 96.0615 293.003 96.0615Z" fill="#77767B"/>
<path d="M129.067 152.171H111.53C108.292 152.171 105.684 154.778 105.684 158.017C105.684 161.255 108.292 163.862 111.53 163.862H129.067V152.171Z" fill="#9A9996"/>
<path d="M31.7905 224.309C24.1121 224.309 17.8876 218.085 17.8876 210.406C17.8876 202.728 24.1121 196.503 31.7905 196.503C39.4688 196.503 45.6934 202.728 45.6934 210.406C45.6934 218.085 39.4688 224.309 31.7905 224.309Z" fill="#241F31"/>
<path d="M31.7203 218.868C27.0078 218.868 23.1876 215.048 23.1876 210.335C23.1876 205.623 27.0078 201.803 31.7203 201.803C36.4327 201.803 40.2529 205.623 40.2529 210.335C40.2529 215.048 36.4327 218.868 31.7203 218.868Z" fill="#3D3846"/>
<path d="M106.537 228.27H57.3405V238.315H106.537C109.32 238.315 111.56 236.075 111.56 233.293C111.56 230.51 109.32 228.27 106.537 228.27Z" fill="#9A9996"/>
<path d="M43.2819 125.327H50.6593C52.494 125.327 54.2536 126.056 55.551 127.353C56.8483 128.65 57.5771 130.41 57.5771 132.245V224.114" stroke="url(#paint5_linear_146_3)" stroke-width="2.3383"/>
<path d="M57.1055 195.597L31.7156 210.629H56.6112" stroke="#3D3846" stroke-width="2.3383" stroke-linecap="round" stroke-linejoin="round"/>
<path d="M57.4404 210.726L31.4057 225.757H57.1172" stroke="url(#paint6_linear_146_3)" stroke-width="2.3383"/>
<path d="M107.749 214.24H58.5524V224.285H107.749C110.531 224.285 112.771 222.045 112.771 219.263C112.771 216.48 110.531 214.24 107.749 214.24Z" fill="#9A9996"/>
<path d="M43.0446 142.198H50.422C51.3304 142.198 52.23 142.377 53.0693 142.725C53.9086 143.073 54.6713 143.582 55.3136 144.225C55.956 144.867 56.4656 145.63 56.8132 146.469C57.1609 147.308 57.3398 148.208 57.3398 149.116V238.315" stroke="url(#paint7_linear_146_3)" stroke-width="2.3383"/>
<path d="M31.7917 238.807C24.0181 238.807 17.7163 232.505 17.7163 224.731C17.7163 216.957 24.0181 210.656 31.7917 210.656C39.5654 210.656 45.8672 216.957 45.8672 224.731C45.8672 232.505 39.5654 238.807 31.7917 238.807Z" fill="url(#paint8_radial_146_3)"/>
<path d="M30.5463 138.141H46.9144C48.8515 138.141 50.4219 139.711 50.4219 141.649C50.4219 143.586 48.8515 145.156 46.9144 145.156H30.5463C28.6092 145.156 27.0388 143.586 27.0388 141.649C27.0388 139.711 28.6092 138.141 30.5463 138.141Z" fill="#986A44"/>
<path d="M71.5498 175.554H120.489C123.117 175.554 125.248 177.685 125.248 180.313V229.252C125.248 231.881 123.117 234.012 120.489 234.012H71.5498C68.9213 234.012 66.7904 231.881 66.7904 229.252V180.313C66.7904 177.685 68.9213 175.554 71.5498 175.554Z" fill="#E5D3C4"/>
<path d="M125.184 187.245H66.7908V229.335C66.7908 229.949 66.9118 230.557 67.1468 231.125C67.3818 231.692 67.7263 232.208 68.1606 232.642C68.5948 233.076 69.1104 233.421 69.6778 233.656C70.2452 233.891 70.8533 234.012 71.4674 234.012H120.507C121.121 234.012 121.729 233.891 122.297 233.656C122.864 233.421 123.38 233.076 123.814 232.642C124.248 232.208 124.593 231.692 124.828 231.125C125.063 230.557 125.184 229.949 125.184 229.335V187.245Z" fill="#CDAB8F"/>
<path d="M104.203 175.554H87.835V203.614L104.203 210.629V175.554Z" fill="#986A44"/>
<path d="M87.835 175.554H104.203V187.245H87.835V175.554Z" fill="#B5835A"/>
<path d="M30.9291 121.773H47.2972C49.2343 121.773 50.8047 123.343 50.8047 125.28C50.8047 127.218 49.2343 128.788 47.2972 128.788H30.9291C28.992 128.788 27.4216 127.218 27.4216 125.28C27.4216 123.343 28.992 121.773 30.9291 121.773Z" fill="#986A44"/>
<path d="M31.7912 232.008C27.7721 232.008 24.514 228.75 24.514 224.731C24.514 220.712 27.7721 217.454 31.7912 217.454C35.8103 217.454 39.0684 220.712 39.0684 224.731C39.0684 228.75 35.8103 232.008 31.7912 232.008Z" fill="#F6F5F4"/>
<path d="M154.789 44.6089H189.863V67.9919H154.789V44.6089Z" fill="#8FF0A4"/>
<path d="M119.715 110.081V117.096H126.729C124.391 117.096 119.715 114.758 119.715 110.081Z" fill="#2EC27E"/>
<path d="M154.789 70.3303L124.391 110.081" stroke="#99C1F1" stroke-width="4.67661" stroke-linecap="round"/>
<defs>
<radialGradient id="paint0_radial_146_3" cx="0" cy="0" r="1" gradientUnits="userSpaceOnUse" gradientTransform="translate(294.889 162.818) rotate(180) scale(23.383)">
<stop stop-color="#241F31"/>
<stop offset="0.409752" stop-color="#241F31"/>
<stop offset="0.732922" stop-color="#3D3D3D"/>
<stop offset="1" stop-color="#241F31"/>
</radialGradient>
<radialGradient id="paint1_radial_146_3" cx="0" cy="0" r="1" gradientUnits="userSpaceOnUse" gradientTransform="translate(118.565 129.121) rotate(165) scale(4.67146 4.67145)">
<stop stop-color="#FCEEAE"/>
<stop offset="1" stop-color="#F6D32D"/>
</radialGradient>
<radialGradient id="paint2_radial_146_3" cx="0" cy="0" r="1" gradientUnits="userSpaceOnUse" gradientTransform="translate(118.145 112.504) rotate(165) scale(4.67146 4.67146)">
<stop stop-color="#FCEEAE"/>
<stop offset="1" stop-color="#F6D32D"/>
</radialGradient>
<radialGradient id="paint3_radial_146_3" cx="0" cy="0" r="1" gradientUnits="userSpaceOnUse" gradientTransform="translate(154.859 162.818) rotate(180) scale(23.383)">
<stop stop-color="#241F31"/>
<stop offset="0.409752" stop-color="#241F31"/>
<stop offset="0.732922" stop-color="#3D3D3D"/>
<stop offset="1" stop-color="#241F31"/>
</radialGradient>
<radialGradient id="paint4_radial_146_3" cx="0" cy="0" r="1" gradientUnits="userSpaceOnUse" gradientTransform="translate(154.789 133.465) rotate(180) scale(39.7512 18.1177)">
<stop stop-color="#8FF0A4"/>
<stop offset="1" stop-color="#8FF0A4" stop-opacity="0"/>
</radialGradient>
<linearGradient id="paint5_linear_146_3" x1="57.2826" y1="154.505" x2="57.2826" y2="134.197" gradientUnits="userSpaceOnUse">
<stop stop-color="#C0BFBC"/>
<stop offset="1" stop-color="white" stop-opacity="0.933259"/>
</linearGradient>
<linearGradient id="paint6_linear_146_3" x1="59.746" y1="156.679" x2="59.746" y2="136.371" gradientUnits="userSpaceOnUse">
<stop stop-color="#C0BFBC"/>
<stop offset="1" stop-color="white" stop-opacity="0.933259"/>
</linearGradient>
<linearGradient id="paint7_linear_146_3" x1="59.7461" y1="168.672" x2="59.7461" y2="153.865" gradientUnits="userSpaceOnUse">
<stop stop-color="#C0BFBC"/>
<stop offset="1" stop-color="white" stop-opacity="0.933259"/>
</linearGradient>
<radialGradient id="paint8_radial_146_3" cx="0" cy="0" r="1" gradientUnits="userSpaceOnUse" gradientTransform="translate(31.8802 223.892) rotate(180) scale(13.9453 13.9452)">
<stop stop-color="#241F31"/>
<stop offset="0.409752" stop-color="#241F31"/>
<stop offset="0.732922" stop-color="#3D3D3D"/>
<stop offset="1" stop-color="#241F31"/>
</radialGradient>
</defs>
</svg>
